<svg version="1.1" id="Layer_1" xmlns="http://www.w3.org/2000/svg" xmlns:xlink="http://www.w3.org/1999/xlink" x="0px" y="0px"
	 width="100%" viewBox="0 0 1440 1440" enable-background="new 0 0 1440 1440" xml:space="preserve">
<path fill="#2083FD" opacity="1.000000" stroke="none" 
	d="
M1.000001,1164.000000 
	C1.000000,868.970642 1.000000,573.941284 1.387911,278.708801 
	C2.179863,277.656494 2.806244,276.844238 2.954503,275.952545 
	C5.087187,263.125244 6.632401,250.172791 9.407612,237.488632 
	C11.562663,227.638947 14.590736,217.860306 18.379763,208.515991 
	C24.176407,194.220596 30.258846,179.949081 37.537933,166.374146 
	C44.068722,154.194733 51.975498,142.681961 60.019295,131.405838 
	C67.488533,120.935127 75.501518,110.774307 84.055405,101.172157 
	C100.037384,83.231636 118.313499,67.792679 138.247040,54.364891 
	C144.597931,50.086758 150.956512,45.760632 157.643906,42.056431 
	C166.065475,37.391670 174.741714,33.157875 183.467957,29.080307 
	C191.784210,25.194319 200.111740,21.170601 208.786011,18.253115 
	C219.929993,14.504962 231.329865,11.383387 242.796448,8.767500 
	C253.538605,6.316873 264.518372,4.915293 275.371002,2.928646 
	C276.332794,2.752583 277.127625,1.664494 278.000000,0.999998 
	C573.029358,1.000000 868.058777,1.000000 1163.291992,1.388111 
	C1167.315308,2.327350 1171.170776,2.700584 1174.946899,3.465650 
	C1183.511475,5.200886 1192.135986,6.766192 1200.554565,9.065264 
	C1212.666992,12.373045 1224.724609,15.960234 1236.601074,20.025595 
	C1244.787476,22.827848 1252.712524,26.455795 1260.599976,30.053276 
	C1269.066650,33.914986 1277.678833,37.629265 1285.629761,42.403667 
	C1294.362427,47.647652 1302.586548,53.798691 1310.717285,59.969624 
	C1320.971558,67.752274 1331.306152,75.508163 1340.894043,84.072815 
	C1358.931519,100.185257 1374.427246,118.617027 1387.935791,138.689514 
	C1392.038208,144.785110 1396.394165,150.760818 1399.910889,157.187149 
	C1404.530273,165.628571 1408.562622,174.402069 1412.609741,183.142776 
	C1416.530762,191.610962 1420.756226,200.012619 1423.750854,208.816620 
	C1427.534546,219.941132 1430.625000,231.348190 1433.238892,242.810242 
	C1435.687744,253.548996 1437.086914,264.525421 1439.071411,275.374603 
	C1439.247070,276.335205 1440.335571,277.128815 1441.000000,278.000000 
	C1441.000000,529.696045 1441.000000,781.392090 1440.672119,1033.460938 
	C1438.707886,1031.770264 1436.876587,1029.831543 1435.463745,1027.625000 
	C1401.621094,974.771545 1367.805542,921.900696 1334.036865,868.999939 
	C1329.209961,861.438354 1324.648071,853.707520 1319.951172,845.678589 
	C1318.313477,842.063477 1316.903442,838.692139 1315.009399,835.619080 
	C1312.524414,831.587036 1310.512695,827.669128 1310.976807,822.617859 
	C1312.161621,809.727600 1313.573853,796.817200 1313.842163,783.892944 
	C1314.315063,761.131226 1314.389771,738.344788 1313.898560,715.584595 
	C1313.504517,697.329773 1312.497070,679.056702 1310.890503,660.868652 
	C1309.402954,644.028992 1307.473755,627.161865 1304.459839,610.538696 
	C1299.740601,584.508179 1293.364746,558.868408 1284.911377,533.699097 
	C1273.829712,500.704010 1259.480713,469.289520 1241.580811,439.537262 
	C1224.023071,410.353516 1203.056885,383.659210 1178.922119,359.646118 
	C1166.096558,346.885284 1152.608398,334.677063 1138.536011,323.313171 
	C1123.052734,310.809814 1107.276733,298.374390 1090.313965,288.073364 
	C1069.888062,275.669312 1048.307983,265.074951 1026.811035,254.547745 
	C998.182861,240.528320 968.030518,230.282776 937.312012,222.019104 
	C911.789490,215.153214 885.946838,209.441605 860.148865,203.651520 
	C848.002808,200.925461 835.676514,198.878693 823.346313,197.126938 
	C806.256287,194.698990 789.118103,192.507812 771.941284,190.817200 
	C749.152222,188.574188 726.314270,186.802643 703.479004,185.069626 
	C697.015503,184.579086 690.487732,184.965179 683.990112,184.888229 
	C663.022156,184.639908 642.039490,183.752090 621.091064,184.269424 
	C600.192322,184.785507 579.318054,186.558838 558.452637,188.053986 
	C546.704529,188.895813 534.961060,190.015991 523.279480,191.511063 
	C511.755096,192.986023 500.328247,195.205887 488.828979,196.897797 
	C461.311218,200.946533 434.246399,206.997955 407.710388,215.307083 
	C396.450775,218.832764 385.124481,222.329987 374.245636,226.845245 
	C356.598694,234.169617 338.905304,241.564804 321.939789,250.304916 
	C297.496490,262.897369 275.182037,278.743927 254.295227,296.804779 
	C238.227371,310.698700 223.857040,326.040100 210.820053,342.606903 
	C201.516418,354.429535 193.264084,367.115631 185.047089,379.744659 
	C179.388580,388.441467 174.344162,397.567993 169.484146,406.745453 
	C164.848770,415.498688 160.766098,424.546936 156.527054,433.506470 
	C154.934769,436.871887 153.258270,440.255402 152.206528,443.804443 
	C150.778152,448.624542 150.621811,453.930603 148.595978,458.432465 
	C146.761536,462.509033 144.504837,466.205231 144.611343,470.873749 
	C144.628021,471.605103 143.278748,472.281952 142.830399,473.126892 
	C141.800262,475.068268 140.279282,477.047913 140.123444,479.100525 
	C139.579041,486.271393 133.930756,492.299835 135.590546,499.938141 
	C135.701141,500.447174 134.516510,501.139893 134.179962,501.861694 
	C133.059860,504.264160 131.594604,506.632355 131.113464,509.174866 
	C130.472305,512.562927 131.924133,517.111206 130.169296,519.361755 
	C126.746712,523.751099 127.059288,528.260437 127.002174,533.018433 
	C126.954880,536.957397 127.714973,541.060547 123.274963,543.626404 
	C122.367935,544.150513 122.128677,546.299072 122.064255,547.720764 
	C121.898476,551.379578 122.028290,555.050903 121.993553,558.716736 
	C121.951996,563.102722 122.984505,567.699585 118.173592,570.806458 
	C117.121529,571.485901 117.075340,574.156494 117.049828,575.917175 
	C116.936363,583.747803 117.109314,591.583740 116.915016,599.411194 
	C116.869896,601.229187 115.852303,603.045349 115.171249,604.819763 
	C114.166451,607.437683 112.212784,609.995483 112.144913,612.617188 
	C111.821533,625.107178 112.063484,637.610779 111.928864,650.107727 
	C111.908936,651.957458 111.535179,654.622009 110.316833,655.483093 
	C106.985588,657.837769 106.976830,660.909180 106.980721,664.308533 
	C107.014313,693.637939 107.027733,722.967468 106.939102,752.296631 
	C106.932983,754.323242 106.626022,757.654175 105.491356,758.145935 
	C100.598846,760.266357 100.981628,764.135315 100.982758,768.185120 
	C101.005768,850.674133 100.999832,933.163208 101.001503,1015.652222 
	C101.001534,1017.151855 100.793411,1018.700867 101.101685,1020.136841 
	C101.397591,1021.515381 101.936081,1023.596436 102.892845,1023.950562 
	C107.544022,1025.671875 107.012550,1029.376709 107.010262,1033.040405 
	C106.992012,1062.203247 106.953629,1091.366211 107.090988,1120.528442 
	C107.101746,1122.811401 108.302101,1125.122681 109.119987,1127.358521 
	C109.972115,1129.688110 111.819275,1131.925171 111.868393,1134.231812 
	C112.141518,1147.057617 111.952393,1159.892578 112.052574,1172.723511 
	C112.067520,1174.637573 112.132286,1177.541016 113.277008,1178.281494 
	C117.728706,1181.160767 116.977875,1185.337769 116.993736,1189.423584 
	C117.018311,1195.755981 116.911163,1202.090698 117.061508,1208.419678 
	C117.102783,1210.157471 117.298706,1212.731689 118.392792,1213.454102 
	C122.361107,1216.073608 122.077545,1219.774170 122.015663,1223.621216 
	C121.948669,1227.786255 121.792221,1231.969116 122.104744,1236.111816 
	C122.241417,1237.923462 123.422241,1239.665039 124.173149,1241.419434 
	C125.090706,1243.563110 126.636261,1245.621582 126.885681,1247.832275 
	C127.538368,1253.617554 125.451630,1259.911987 130.538254,1264.770996 
	C130.929703,1265.145020 130.898560,1266.030640 130.943954,1266.686768 
	C131.362946,1272.744019 129.124512,1279.513550 135.611176,1283.928467 
	C135.396286,1290.433350 136.695892,1296.576416 139.972748,1302.251709 
	C140.045883,1302.378418 139.945862,1302.595581 139.999527,1302.744263 
	C142.409836,1309.422729 144.823029,1316.100220 147.249786,1322.772583 
	C147.801849,1324.290527 148.546127,1325.752686 148.956940,1327.305420 
	C150.204147,1332.018799 150.750916,1337.010742 152.634598,1341.441895 
	C155.856873,1349.021729 159.895294,1356.254150 163.573013,1363.641479 
	C164.672928,1365.850830 165.671158,1368.111206 166.787964,1370.311646 
	C170.935059,1378.482300 175.002716,1386.696045 179.318039,1394.777466 
	C182.042511,1399.879517 185.153976,1404.775146 188.091873,1409.763428 
	C187.594406,1410.265625 187.096939,1410.767944 186.599457,1411.270264 
	C182.065460,1409.063965 177.628143,1406.618408 172.963882,1404.734741 
	C169.795486,1403.455200 166.308823,1402.963745 162.615555,1402.055420 
	C142.697266,1391.049805 124.416191,1378.267822 107.601189,1363.436035 
	C89.809738,1347.742920 73.382011,1330.726807 60.134682,1310.983154 
	C51.089588,1297.502441 42.317394,1283.763184 34.547142,1269.526123 
	C28.197723,1257.892456 22.882637,1245.583984 18.274607,1233.143066 
	C14.146024,1221.996460 11.174011,1210.360840 8.496786,1198.755127 
	C6.093863,1188.338623 4.829042,1177.661621 2.933226,1167.122803 
	C2.731641,1166.002197 1.665215,1165.037231 1.000001,1164.000000 
z"/>
<path fill="#1F7FF6" opacity="1.000000" stroke="none" 
	d="
M162.964539,1402.119873 
	C166.308823,1402.963745 169.795486,1403.455200 172.963882,1404.734741 
	C177.628143,1406.618408 182.065460,1409.063965 186.599457,1411.270264 
	C187.096939,1410.767944 187.594406,1410.265625 188.091873,1409.763428 
	C185.153976,1404.775146 182.042511,1399.879517 179.318039,1394.777466 
	C175.002716,1386.696045 170.935059,1378.482300 166.787964,1370.311646 
	C165.671158,1368.111206 164.672928,1365.850830 163.573013,1363.641479 
	C159.895294,1356.254150 155.856873,1349.021729 152.634598,1341.441895 
	C150.750916,1337.010742 150.204147,1332.018799 148.956940,1327.305420 
	C148.546127,1325.752686 147.801849,1324.290527 147.249786,1322.772583 
	C144.823029,1316.100220 142.409836,1309.422729 139.999527,1302.744263 
	C139.945862,1302.595581 140.045883,1302.378418 139.972748,1302.251709 
	C136.695892,1296.576416 135.396286,1290.433350 135.611176,1283.928467 
	C129.124512,1279.513550 131.362946,1272.744019 130.943954,1266.686768 
	C130.898560,1266.030640 130.929703,1265.145020 130.538254,1264.770996 
	C125.451630,1259.911987 127.538368,1253.617554 126.885681,1247.832275 
	C126.636261,1245.621582 125.090706,1243.563110 124.173149,1241.419434 
	C123.422241,1239.665039 122.241417,1237.923462 122.104744,1236.111816 
	C121.792221,1231.969116 121.948669,1227.786255 122.015663,1223.621216 
	C122.077545,1219.774170 122.361107,1216.073608 118.392792,1213.454102 
	C117.298706,1212.731689 117.102783,1210.157471 117.061508,1208.419678 
	C116.911163,1202.090698 117.018311,1195.755981 116.993736,1189.423584 
	C116.977875,1185.337769 117.728706,1181.160767 113.277008,1178.281494 
	C112.132286,1177.541016 112.067520,1174.637573 112.052574,1172.723511 
	C111.952393,1159.892578 112.141518,1147.057617 111.868393,1134.231812 
	C111.819275,1131.925171 109.972115,1129.688110 109.119987,1127.358521 
	C108.302101,1125.122681 107.101746,1122.811401 107.090988,1120.528442 
	C106.953629,1091.366211 106.992012,1062.203247 107.010262,1033.040405 
	C107.012550,1029.376709 107.544022,1025.671875 102.892845,1023.950562 
	C101.936081,1023.596436 101.397591,1021.515381 101.101685,1020.136841 
	C100.793411,1018.700867 101.001534,1017.151855 101.001503,1015.652222 
	C100.999832,933.163208 101.005768,850.674133 100.982758,768.185120 
	C100.981628,764.135315 100.598846,760.266357 105.491356,758.145935 
	C106.626022,757.654175 106.932983,754.323242 106.939102,752.296631 
	C107.027733,722.967468 107.014313,693.637939 106.980721,664.308533 
	C106.976830,660.909180 106.985588,657.837769 110.316833,655.483093 
	C111.535179,654.622009 111.908936,651.957458 111.928864,650.107727 
	C112.063484,637.610779 111.821533,625.107178 112.144913,612.617188 
	C112.212784,609.995483 114.166451,607.437683 115.171249,604.819763 
	C115.852303,603.045349 116.869896,601.229187 116.915016,599.411194 
	C117.109314,591.583740 116.936363,583.747803 117.049828,575.917175 
	C117.075340,574.156494 117.121529,571.485901 118.173592,570.806458 
	C122.984505,567.699585 121.951996,563.102722 121.993553,558.716736 
	C122.028290,555.050903 121.898476,551.379578 122.064255,547.720764 
	C122.128677,546.299072 122.367935,544.150513 123.274963,543.626404 
	C127.714973,541.060547 126.954880,536.957397 127.002174,533.018433 
	C127.059288,528.260437 126.746712,523.751099 130.169296,519.361755 
	C131.924133,517.111206 130.472305,512.562927 131.113464,509.174866 
	C131.594604,506.632355 133.059860,504.264160 134.179962,501.861694 
	C134.516510,501.139893 135.701141,500.447174 135.590546,499.938141 
	C133.930756,492.299835 139.579041,486.271393 140.123444,479.100525 
	C140.279282,477.047913 141.800262,475.068268 142.830399,473.126892 
	C143.278748,472.281952 144.628021,471.605103 144.611343,470.873749 
	C144.504837,466.205231 146.761536,462.509033 148.595978,458.432465 
	C150.621811,453.930603 150.778152,448.624542 152.206528,443.804443 
	C153.258270,440.255402 154.934769,436.871887 156.527054,433.506470 
	C160.766098,424.546936 164.848770,415.498688 169.484146,406.745453 
	C174.344162,397.567993 179.388580,388.441467 185.047089,379.744659 
	C193.264084,367.115631 201.516418,354.429535 210.820053,342.606903 
	C223.857040,326.040100 238.227371,310.698700 254.295227,296.804779 
	C275.182037,278.743927 297.496490,262.897369 321.939789,250.304916 
	C338.905304,241.564804 356.598694,234.169617 374.245636,226.845245 
	C385.124481,222.329987 396.450775,218.832764 407.710388,215.307083 
	C434.246399,206.997955 461.311218,200.946533 488.828979,196.897797 
	C500.328247,195.205887 511.755096,192.986023 523.279480,191.511063 
	C534.961060,190.015991 546.704529,188.895813 558.452637,188.053986 
	C579.318054,186.558838 600.192322,184.785507 621.091064,184.269424 
	C642.039490,183.752090 663.022156,184.639908 683.990112,184.888229 
	C690.487732,184.965179 697.015503,184.579086 703.479004,185.069626 
	C726.314270,186.802643 749.152222,188.574188 771.941284,190.817200 
	C789.118103,192.507812 806.256287,194.698990 823.346313,197.126938 
	C835.676514,198.878693 848.002808,200.925461 860.148865,203.651520 
	C885.946838,209.441605 911.789490,215.153214 937.312012,222.019104 
	C968.030518,230.282776 998.182861,240.528320 1026.811035,254.547745 
	C1048.307983,265.074951 1069.888062,275.669312 1090.313965,288.073364 
	C1107.276733,298.374390 1123.052734,310.809814 1138.536011,323.313171 
	C1152.608398,334.677063 1166.096558,346.885284 1178.922119,359.646118 
	C1203.056885,383.659210 1224.023071,410.353516 1241.580811,439.537262 
	C1259.480713,469.289520 1273.829712,500.704010 1284.911377,533.699097 
	C1293.364746,558.868408 1299.740601,584.508179 1304.459839,610.538696 
	C1307.473755,627.161865 1309.402954,644.028992 1310.890503,660.868652 
	C1312.497070,679.056702 1313.504517,697.329773 1313.898560,715.584595 
	C1314.389771,738.344788 1314.315063,761.131226 1313.842163,783.892944 
	C1313.573853,796.817200 1312.161621,809.727600 1310.976807,822.617859 
	C1310.512695,827.669128 1312.524414,831.587036 1315.009399,835.619080 
	C1316.903442,838.692139 1318.313477,842.063477 1319.676270,845.484497 
	C1307.426514,827.081177 1295.488281,808.463623 1283.423950,789.928040 
	C1279.455811,783.831421 1275.161499,777.947144 1270.864990,771.657166 
	C1268.644043,767.966309 1266.541992,764.603210 1264.512085,761.197266 
	C1261.310059,755.824829 1258.156372,750.423584 1254.979736,744.610474 
	C1253.318848,724.345886 1251.906616,704.480469 1249.919312,684.672852 
	C1248.479126,670.317810 1246.692139,655.969055 1244.290405,641.747498 
	C1242.134644,628.982117 1239.130127,616.346558 1236.144775,603.737732 
	C1230.145508,578.399048 1221.844238,553.801514 1210.577148,530.320801 
	C1198.685425,505.537842 1185.056030,481.709900 1167.967407,460.083466 
	C1156.442139,445.497620 1144.932861,430.825653 1132.382690,417.140076 
	C1112.557739,395.521729 1090.174438,376.602295 1066.457764,359.362854 
	C1029.508301,332.504578 989.445923,311.221985 947.230957,293.919678 
	C918.344055,282.080017 888.451172,273.457458 858.051270,266.567841 
	C842.973755,263.150757 827.855774,259.818878 812.629517,257.178345 
	C797.431335,254.542709 782.117859,252.414062 766.777771,250.792847 
	C745.170776,248.509338 723.524048,246.258377 701.835388,245.192764 
	C682.948059,244.264786 663.974731,244.748688 645.047485,245.077438 
	C629.440063,245.348541 613.807739,245.841766 598.253235,247.077179 
	C579.075073,248.600388 559.887634,250.440933 540.845947,253.143356 
	C512.995483,257.095917 485.531006,263.115875 458.621277,271.427338 
	C457.202484,271.865570 456.197876,273.644745 454.541840,274.903137 
	C429.384399,275.006622 404.685547,275.006622 379.466156,275.006622 
	C379.466156,277.727356 379.480927,279.692474 379.463745,281.657288 
	C379.349182,294.770844 379.227844,307.884338 378.776825,320.894073 
	C376.206055,317.966370 373.880585,317.683655 370.876770,319.940521 
	C368.098480,322.027985 364.769440,323.377350 361.964905,325.435944 
	C346.692749,336.645966 331.237915,347.634125 316.394653,359.391357 
	C307.577118,366.375610 299.015930,373.983490 291.678650,382.468964 
	C279.528900,396.519958 268.184601,411.298065 256.998505,426.144714 
	C238.986526,450.050934 226.584320,477.077759 215.280045,504.554138 
	C210.115433,517.107300 206.506683,530.303406 202.265259,543.231873 
	C201.050034,546.936035 199.931122,550.687073 199.050369,554.482178 
	C197.764374,560.023499 196.961792,565.683350 195.532043,571.183228 
	C193.988144,577.122070 191.428314,582.832458 190.272141,588.827759 
	C188.699249,596.983765 188.992111,605.591003 186.711395,613.492920 
	C184.502716,621.145264 183.992188,628.690857 183.758179,636.438660 
	C183.731583,637.319031 182.763626,638.132629 182.431793,639.049438 
	C181.562408,641.451233 180.337250,643.848083 180.097977,646.328308 
	C179.604431,651.444763 179.920944,656.640015 179.414795,661.754395 
	C178.935104,666.601135 177.509995,671.358337 177.090500,676.205933 
	C176.675369,681.003174 177.156494,685.872253 176.916245,690.693420 
	C176.823212,692.560303 175.838150,694.385315 175.243256,696.224121 
	C174.504608,698.507202 173.149017,700.772827 173.102646,703.067078 
	C172.877075,714.228638 173.048233,725.397644 172.953445,736.562988 
	C172.937012,738.497925 172.396423,740.446045 171.956482,742.355469 
	C171.377686,744.867554 170.085510,747.346863 170.082932,749.841248 
	C169.985153,844.669739 169.998032,939.498230 170.018585,1034.326782 
	C170.018936,1035.976196 170.168259,1037.648438 170.463974,1039.270630 
	C171.245895,1043.560181 172.641037,1047.799561 172.888474,1052.110718 
	C173.298431,1059.253540 172.892136,1066.439209 173.034912,1073.602539 
	C173.144669,1079.109619 171.545837,1085.039429 176.467239,1089.568726 
	C176.868805,1089.938354 176.989502,1090.849854 176.912262,1091.468506 
	C174.935928,1107.296631 180.352524,1122.628418 180.075699,1138.350342 
	C180.037048,1140.546021 180.931427,1142.783203 181.543900,1144.958862 
	C182.278473,1147.568481 183.549149,1150.081177 183.911423,1152.728516 
	C184.448654,1156.654297 183.957367,1160.742310 184.677689,1164.617432 
	C186.183472,1172.718140 188.342026,1180.695801 189.952988,1188.779663 
	C191.288773,1195.482544 192.220505,1202.266113 193.347702,1209.011108 
	C193.400543,1209.327271 193.648422,1209.605835 193.746933,1209.920166 
	C195.486984,1215.476318 197.344269,1220.999878 198.913116,1226.604126 
	C200.315201,1231.612671 201.183701,1236.774292 202.669357,1241.754517 
	C204.914780,1249.281372 207.500137,1256.706665 209.925186,1264.180176 
	C211.800049,1269.958130 213.198288,1275.940552 215.607666,1281.484741 
	C220.417419,1292.552368 224.986877,1303.847412 231.098465,1314.196533 
	C239.604355,1328.599609 248.511734,1342.962036 258.960175,1355.965576 
	C269.215790,1368.729370 281.335815,1380.060669 293.178314,1391.458740 
	C300.087158,1398.108276 307.578644,1404.407593 315.650848,1409.538330 
	C331.069336,1419.338623 347.108185,1428.160889 362.828522,1437.491821 
	C364.123474,1438.260498 364.953796,1439.812134 366.000000,1441.000000 
	C337.312439,1441.000000 308.624878,1441.000000 279.776550,1440.645386 
	C275.931519,1439.646851 272.207458,1439.174072 268.569794,1438.329224 
	C252.514252,1434.601440 236.332230,1431.303345 220.481934,1426.835205 
	C200.285950,1421.141968 181.134415,1412.692871 162.964539,1402.119873 
z"/>
<path fill="#1C6FD5" opacity="1.000000" stroke="none" 
	d="
M1271.016235,771.965698 
	C1275.161499,777.947144 1279.455811,783.831421 1283.423950,789.928040 
	C1295.488281,808.463623 1307.426514,827.081177 1319.688721,845.860901 
	C1324.648071,853.707520 1329.209961,861.438354 1334.036865,868.999939 
	C1367.805542,921.900696 1401.621094,974.771545 1435.463745,1027.625000 
	C1436.876587,1029.831543 1438.707886,1031.770264 1440.672119,1033.916870 
	C1441.000000,1070.354248 1441.000000,1106.708496 1440.644531,1143.684937 
	C1439.915039,1150.902954 1439.541016,1157.498657 1439.124146,1164.416016 
	C1439.018433,1165.163818 1438.955566,1165.590210 1438.553101,1166.164307 
	C1437.535522,1172.238770 1436.857544,1178.165527 1436.130859,1184.413818 
	C1436.018555,1185.162354 1435.954590,1185.589600 1435.563232,1186.143555 
	C1434.870605,1189.203491 1434.505493,1192.136597 1434.119751,1195.398071 
	C1434.025391,1196.156982 1433.951660,1196.587769 1433.553467,1197.138672 
	C1432.597412,1200.570801 1431.965820,1203.882568 1431.272705,1207.554443 
	C1430.755127,1209.283936 1430.299072,1210.653320 1429.610352,1212.090332 
	C1429.519775,1212.762817 1429.661865,1213.367798 1429.798828,1214.318481 
	C1429.150635,1216.121094 1428.507690,1217.577881 1427.702148,1219.220703 
	C1427.379883,1219.694580 1427.229736,1219.987549 1427.088623,1220.678833 
	C1426.864258,1222.363159 1426.870850,1223.749146 1426.382690,1224.930664 
	C1419.749878,1240.980225 1413.825562,1257.381958 1406.199219,1272.948730 
	C1391.253784,1303.454590 1370.786133,1329.999146 1345.906006,1353.213623 
	C1324.240845,1373.428467 1300.613281,1390.837891 1274.618896,1405.038940 
	C1252.577881,1417.080200 1229.330811,1426.134521 1204.913208,1431.880493 
	C1192.071289,1434.902466 1178.933716,1436.661377 1165.950317,1439.100098 
	C1164.885498,1439.300171 1163.979736,1440.346802 1163.000000,1441.000000 
	C1154.645752,1441.000000 1146.291504,1441.000000 1137.626099,1440.643188 
	C1138.339355,1439.863281 1139.339600,1439.149536 1140.391846,1439.062622 
	C1149.655273,1438.296997 1158.930908,1437.682495 1168.196655,1436.943115 
	C1175.747559,1436.340698 1182.453979,1433.803955 1187.557007,1427.931885 
	C1193.981201,1420.539307 1200.720947,1413.385864 1206.692383,1405.641846 
	C1222.266113,1385.445312 1233.858887,1363.043823 1242.159546,1338.950928 
	C1251.233765,1312.613037 1257.702515,1285.678955 1260.097168,1257.863892 
	C1261.804932,1238.029053 1264.458252,1218.197021 1264.736572,1198.336426 
	C1265.123169,1170.756348 1263.704956,1143.150024 1263.012329,1115.556152 
	C1262.373901,1090.126221 1261.411621,1064.701294 1261.096436,1039.267822 
	C1260.902832,1023.644470 1261.569458,1008.006897 1262.003784,992.380005 
	C1262.950562,958.316650 1263.964478,924.254944 1265.025269,890.194885 
	C1265.263062,882.560059 1265.651978,874.922974 1266.235840,867.307190 
	C1267.744873,847.621704 1269.743774,827.967163 1270.872803,808.261597 
	C1271.563965,796.199890 1271.010742,784.066772 1271.016235,771.965698 
z"/>
<path fill="#1B6ACD" opacity="1.000000" stroke="none" 
	d="
M1270.864990,771.657227 
	C1271.010742,784.066772 1271.563965,796.199890 1270.872803,808.261597 
	C1269.743774,827.967163 1267.744873,847.621704 1266.235840,867.307190 
	C1265.651978,874.922974 1265.263062,882.560059 1265.025269,890.194885 
	C1263.964478,924.254944 1262.950562,958.316650 1262.003784,992.380005 
	C1261.569458,1008.006897 1260.902832,1023.644470 1261.096436,1039.267822 
	C1261.411621,1064.701294 1262.373901,1090.126221 1263.012329,1115.556152 
	C1263.704956,1143.150024 1265.123169,1170.756348 1264.736572,1198.336426 
	C1264.458252,1218.197021 1261.804932,1238.029053 1260.097168,1257.863892 
	C1257.702515,1285.678955 1251.233765,1312.613037 1242.159546,1338.950928 
	C1233.858887,1363.043823 1222.266113,1385.445312 1206.692383,1405.641846 
	C1200.720947,1413.385864 1193.981201,1420.539307 1187.557007,1427.931885 
	C1182.453979,1433.803955 1175.747559,1436.340698 1168.196655,1436.943115 
	C1158.930908,1437.682495 1149.655273,1438.296997 1140.391846,1439.062622 
	C1139.339600,1439.149536 1138.339355,1439.863281 1137.157471,1440.643188 
	C946.979126,1441.000000 756.958191,1441.000000 566.402466,1440.656860 
	C564.943909,1438.746582 564.061096,1437.153442 563.089844,1435.616333 
	C557.061157,1426.074829 551.012695,1416.545776 545.343811,1407.030029 
	C553.082642,1412.381226 561.230042,1411.517090 569.468689,1410.090454 
	C570.604248,1409.893799 571.801514,1410.086182 572.961182,1409.990234 
	C582.059753,1409.238037 591.156982,1408.468384 600.253052,1407.686646 
	C614.470581,1406.464966 628.682800,1405.179321 642.905579,1404.022461 
	C649.526184,1403.483887 656.164307,1403.150635 662.797791,1402.783203 
	C671.913696,1402.277954 681.046326,1401.254028 690.147766,1401.468628 
	C713.071472,1402.009033 735.981567,1403.122559 758.897644,1403.994263 
	C761.393066,1404.089233 763.911377,1403.919922 766.385437,1404.185913 
	C783.873535,1406.065918 801.355225,1408.006348 818.834229,1409.969971 
	C837.143555,1412.026855 855.426392,1414.347412 873.760376,1416.149780 
	C889.776367,1417.724121 905.828308,1419.201294 921.899780,1419.865723 
	C937.036804,1420.491577 952.221191,1420.114258 967.382690,1419.970703 
	C985.698608,1419.797241 1003.822327,1418.172485 1021.697510,1413.677979 
	C1046.630981,1407.408691 1070.024048,1397.802368 1091.362305,1383.392456 
	C1115.016235,1367.418579 1134.789185,1347.523071 1148.867432,1322.697266 
	C1157.202271,1307.999634 1164.790161,1292.619995 1170.463623,1276.742920 
	C1176.306641,1260.391113 1180.444214,1243.243408 1183.456787,1226.114746 
	C1187.015869,1205.878296 1189.146362,1185.335815 1190.805786,1164.837891 
	C1192.078857,1149.114014 1191.746582,1133.254395 1191.980469,1117.453003 
	C1192.692017,1069.357788 1193.346558,1021.261841 1193.988159,973.165710 
	C1194.119263,963.337891 1193.765869,953.492493 1194.225586,943.682861 
	C1194.854858,930.257751 1196.089478,916.861877 1196.989502,903.448425 
	C1198.078979,887.213501 1199.090210,870.973389 1200.135498,854.735474 
	C1201.756836,829.555115 1203.975464,804.395386 1204.844971,779.189148 
	C1205.877197,749.261597 1204.342407,719.342529 1200.854492,689.588928 
	C1199.299805,676.326416 1199.001099,662.647583 1191.524658,650.710938 
	C1190.522217,649.110474 1190.498291,646.897156 1190.299072,645.158264 
	C1194.211792,650.884888 1197.840576,656.424744 1201.482666,661.955933 
	C1208.308594,672.322388 1215.142090,682.683838 1222.051025,693.387451 
	C1229.177979,705.111938 1236.141968,716.549927 1243.309814,727.858704 
	C1247.013794,733.702393 1251.079834,739.316589 1254.982300,745.034485 
	C1258.156372,750.423584 1261.310059,755.824829 1264.512085,761.197266 
	C1266.541992,764.603210 1268.644043,767.966309 1270.864990,771.657227 
z"/>
<path fill="#1E7BEE" opacity="1.000000" stroke="none" 
	d="
M544.970825,1407.012573 
	C551.012695,1416.545776 557.061157,1426.074829 563.089844,1435.616333 
	C564.061096,1437.153442 564.943909,1438.746582 565.933838,1440.656860 
	C499.645782,1441.000000 433.291534,1441.000000 366.468658,1441.000000 
	C364.953796,1439.812134 364.123474,1438.260498 362.828522,1437.491821 
	C347.108185,1428.160889 331.069336,1419.338623 315.650848,1409.538330 
	C307.578644,1404.407593 300.087158,1398.108276 293.178314,1391.458740 
	C281.335815,1380.060669 269.215790,1368.729370 258.960175,1355.965576 
	C248.511734,1342.962036 239.604355,1328.599609 231.098465,1314.196533 
	C224.986877,1303.847412 220.417419,1292.552368 215.607666,1281.484741 
	C213.198288,1275.940552 211.800049,1269.958130 209.925186,1264.180176 
	C207.500137,1256.706665 204.914780,1249.281372 202.669357,1241.754517 
	C201.183701,1236.774292 200.315201,1231.612671 198.913116,1226.604126 
	C197.344269,1220.999878 195.486984,1215.476318 193.746933,1209.920166 
	C193.648422,1209.605835 193.400543,1209.327271 193.347702,1209.011108 
	C192.220505,1202.266113 191.288773,1195.482544 189.952988,1188.779663 
	C188.342026,1180.695801 186.183472,1172.718140 184.677689,1164.617432 
	C183.957367,1160.742310 184.448654,1156.654297 183.911423,1152.728516 
	C183.549149,1150.081177 182.278473,1147.568481 181.543900,1144.958862 
	C180.931427,1142.783203 180.037048,1140.546021 180.075699,1138.350342 
	C180.352524,1122.628418 174.935928,1107.296631 176.912262,1091.468506 
	C176.989502,1090.849854 176.868805,1089.938354 176.467239,1089.568726 
	C171.545837,1085.039429 173.144669,1079.109619 173.034912,1073.602539 
	C172.892136,1066.439209 173.298431,1059.253540 172.888474,1052.110718 
	C172.641037,1047.799561 171.245895,1043.560181 170.463974,1039.270630 
	C170.168259,1037.648438 170.018936,1035.976196 170.018585,1034.326782 
	C169.998032,939.498230 169.985153,844.669739 170.082932,749.841248 
	C170.085510,747.346863 171.377686,744.867554 171.956482,742.355469 
	C172.396423,740.446045 172.937012,738.497925 172.953445,736.562988 
	C173.048233,725.397644 172.877075,714.228638 173.102646,703.067078 
	C173.149017,700.772827 174.504608,698.507202 175.243256,696.224121 
	C175.838150,694.385315 176.823212,692.560303 176.916245,690.693420 
	C177.156494,685.872253 176.675369,681.003174 177.090500,676.205933 
	C177.509995,671.358337 178.935104,666.601135 179.414795,661.754395 
	C179.920944,656.640015 179.604431,651.444763 180.097977,646.328308 
	C180.337250,643.848083 181.562408,641.451233 182.431793,639.049438 
	C182.763626,638.132629 183.731583,637.319031 183.758179,636.438660 
	C183.992188,628.690857 184.502716,621.145264 186.711395,613.492920 
	C188.992111,605.591003 188.699249,596.983765 190.272141,588.827759 
	C191.428314,582.832458 193.988144,577.122070 195.532043,571.183228 
	C196.961792,565.683350 197.764374,560.023499 199.050369,554.482178 
	C199.931122,550.687073 201.050034,546.936035 202.265259,543.231873 
	C206.506683,530.303406 210.115433,517.107300 215.280045,504.554138 
	C226.584320,477.077759 238.986526,450.050934 256.998505,426.144714 
	C268.184601,411.298065 279.528900,396.519958 291.678650,382.468964 
	C299.015930,373.983490 307.577118,366.375610 316.394653,359.391357 
	C331.237915,347.634125 346.692749,336.645966 361.964905,325.435944 
	C364.769440,323.377350 368.098480,322.027985 370.876770,319.940521 
	C373.880585,317.683655 376.206055,317.966370 378.895996,321.350159 
	C379.381104,334.882385 379.415131,347.854767 379.327026,361.048462 
	C379.300415,361.581421 379.395996,361.893127 379.491852,362.472107 
	C379.492584,363.095734 379.492981,363.452087 379.326477,364.196564 
	C379.037567,371.392883 378.915588,378.201050 378.419983,385.013245 
	C376.083191,385.800720 373.854004,386.225189 372.212036,387.442047 
	C368.750458,390.007538 365.452484,392.838043 362.340912,395.823975 
	C348.329346,409.269714 333.535339,422.037872 320.713562,436.544220 
	C309.446320,449.291687 299.530640,463.477600 290.645142,478.022247 
	C280.470306,494.677399 271.399048,512.107300 263.157410,529.810059 
	C256.951050,543.141052 252.669556,557.384216 247.800415,571.315491 
	C245.076447,579.109131 242.860733,587.082397 240.493622,594.997986 
	C239.066422,599.770447 237.652634,604.554443 236.475967,609.392456 
	C234.868988,615.999695 233.336670,622.633301 232.061569,629.310852 
	C230.711197,636.382507 229.635040,643.509033 228.563126,650.630310 
	C227.851944,655.354919 227.854599,660.239929 226.674088,664.830994 
	C223.268265,678.076660 221.955658,691.508545 221.984604,705.126831 
	C221.987411,706.451538 221.992157,707.827515 221.664078,709.093689 
	C218.212967,722.412842 220.307907,736.231628 217.444458,749.786316 
	C215.220795,760.312561 217.040405,771.684570 216.961273,782.679932 
	C216.947159,784.639526 216.516281,786.611145 216.137222,788.549744 
	C215.482925,791.896118 214.109436,795.218079 214.094116,798.555176 
	C213.939621,832.208618 213.337311,865.879761 214.186432,899.512512 
	C215.035110,933.127502 210.937820,966.821411 216.761444,1000.400879 
	C219.397110,1015.598572 215.725159,1031.191528 219.454971,1046.844116 
	C222.587128,1059.988525 221.180222,1074.190063 222.053619,1087.906372 
	C222.556976,1095.811768 223.182373,1103.752563 224.490631,1111.553711 
	C226.634415,1124.337036 229.276855,1137.041016 231.906815,1149.737305 
	C233.631348,1158.062744 235.399689,1166.401245 237.691711,1174.581665 
	C241.245605,1187.265625 244.838318,1199.969116 249.204361,1212.386597 
	C253.485886,1224.563599 257.753204,1236.929565 263.817719,1248.253662 
	C273.520660,1266.371826 283.561371,1284.344116 296.286743,1300.732788 
	C310.155121,1318.593384 325.567596,1334.843750 343.489685,1348.481934 
	C360.052185,1361.085449 378.107666,1371.299927 397.364807,1379.509644 
	C420.968445,1389.572266 445.626709,1395.477051 470.854553,1398.739990 
	C485.630096,1400.651123 500.694092,1400.354980 515.631042,1400.987549 
	C524.925171,1401.381226 534.576355,1399.205444 543.301514,1405.136963 
	C543.995422,1405.888794 544.483093,1406.450684 544.970825,1407.012573 
z"/>
<path fill="#000000" opacity="1.000000" stroke="none" 
	d="
M162.615570,1402.055298 
	C181.134415,1412.692871 200.285950,1421.141968 220.481934,1426.835205 
	C236.332230,1431.303345 252.514252,1434.601440 268.569794,1438.329224 
	C272.207458,1439.174072 275.931519,1439.646851 279.307922,1440.645386 
	C186.406403,1441.000000 93.812790,1441.000000 1.000000,1441.000000 
	C1.000000,1348.979248 1.000000,1256.958252 1.000001,1164.468628 
	C1.665215,1165.037231 2.731641,1166.002197 2.933226,1167.122803 
	C4.829042,1177.661621 6.093863,1188.338623 8.496786,1198.755127 
	C11.174011,1210.360840 14.146024,1221.996460 18.274607,1233.143066 
	C22.882637,1245.583984 28.197723,1257.892456 34.547142,1269.526123 
	C42.317394,1283.763184 51.089588,1297.502441 60.134682,1310.983154 
	C73.382011,1330.726807 89.809738,1347.742920 107.601189,1363.436035 
	C124.416191,1378.267822 142.697266,1391.049805 162.615570,1402.055298 
z"/>
<path fill="#000000" opacity="1.000000" stroke="none" 
	d="
M1441.000000,277.531311 
	C1440.335571,277.128815 1439.247070,276.335205 1439.071411,275.374603 
	C1437.086914,264.525421 1435.687744,253.548996 1433.238892,242.810242 
	C1430.625000,231.348190 1427.534546,219.941132 1423.750854,208.816620 
	C1420.756226,200.012619 1416.530762,191.610962 1412.609741,183.142776 
	C1408.562622,174.402069 1404.530273,165.628571 1399.910889,157.187149 
	C1396.394165,150.760818 1392.038208,144.785110 1387.935791,138.689514 
	C1374.427246,118.617027 1358.931519,100.185257 1340.894043,84.072815 
	C1331.306152,75.508163 1320.971558,67.752274 1310.717285,59.969624 
	C1302.586548,53.798691 1294.362427,47.647652 1285.629761,42.403667 
	C1277.678833,37.629265 1269.066650,33.914986 1260.599976,30.053276 
	C1252.712524,26.455795 1244.787476,22.827848 1236.601074,20.025595 
	C1224.724609,15.960234 1212.666992,12.373045 1200.554565,9.065264 
	C1192.135986,6.766192 1183.511475,5.200886 1174.946899,3.465650 
	C1171.170776,2.700584 1167.315308,2.327350 1163.747925,1.388111 
	C1256.260376,1.000000 1348.520752,1.000000 1441.000000,1.000000 
	C1441.000000,93.020782 1441.000000,185.041733 1441.000000,277.531311 
z"/>
<path fill="#000000" opacity="1.000000" stroke="none" 
	d="
M277.531342,0.999998 
	C277.127625,1.664494 276.332794,2.752583 275.371002,2.928646 
	C264.518372,4.915293 253.538605,6.316873 242.796448,8.767500 
	C231.329865,11.383387 219.929993,14.504962 208.786011,18.253115 
	C200.111740,21.170601 191.784210,25.194319 183.467957,29.080307 
	C174.741714,33.157875 166.065475,37.391670 157.643906,42.056431 
	C150.956512,45.760632 144.597931,50.086758 138.247040,54.364891 
	C118.313499,67.792679 100.037384,83.231636 84.055405,101.172157 
	C75.501518,110.774307 67.488533,120.935127 60.019295,131.405838 
	C51.975498,142.681961 44.068722,154.194733 37.537933,166.374146 
	C30.258846,179.949081 24.176407,194.220596 18.379763,208.515991 
	C14.590736,217.860306 11.562663,227.638947 9.407612,237.488632 
	C6.632401,250.172791 5.087187,263.125244 2.954503,275.952545 
	C2.806244,276.844238 2.179863,277.656494 1.387911,278.252838 
	C1.000000,185.739609 1.000000,93.479218 1.000000,1.000000 
	C93.020782,1.000000 185.041733,1.000000 277.531342,0.999998 
z"/>
<path fill="#000000" opacity="1.000000" stroke="none" 
	d="
M1163.468628,1441.000000 
	C1163.979736,1440.346802 1164.885498,1439.300171 1165.950317,1439.100098 
	C1178.933716,1436.661377 1192.071289,1434.902466 1204.913208,1431.880493 
	C1229.330811,1426.134521 1252.577881,1417.080200 1274.618896,1405.038940 
	C1300.613281,1390.837891 1324.240845,1373.428467 1345.906006,1353.213623 
	C1370.786133,1329.999146 1391.253784,1303.454590 1406.199219,1272.948730 
	C1413.825562,1257.381958 1419.749878,1240.980225 1426.382690,1224.930664 
	C1426.870850,1223.749146 1426.864258,1222.363159 1427.329102,1220.550781 
	C1427.668579,1219.697876 1427.766724,1219.366211 1427.864746,1219.034668 
	C1428.507690,1217.577881 1429.150635,1216.121094 1429.866699,1213.996826 
	C1429.907471,1212.893799 1429.875122,1212.458252 1429.842896,1212.022705 
	C1430.299072,1210.653320 1430.755127,1209.283936 1431.523560,1207.274292 
	C1432.516602,1203.428833 1433.197266,1200.223633 1433.877930,1197.018433 
	C1433.951660,1196.587769 1434.025391,1196.156982 1434.418945,1195.155273 
	C1435.122803,1191.728271 1435.506836,1188.872559 1435.890747,1186.016724 
	C1435.954590,1185.589600 1436.018555,1185.162354 1436.456299,1184.187012 
	C1437.517700,1177.764771 1438.205200,1171.890625 1438.892700,1166.016479 
	C1438.955566,1165.590210 1439.018433,1165.163818 1439.477173,1164.239258 
	C1440.248657,1163.827271 1440.624390,1163.913574 1441.000000,1164.000000 
	C1441.000000,1256.260498 1441.000000,1348.521118 1441.000000,1441.000000 
	C1348.645874,1441.000000 1256.291504,1441.000000 1163.468628,1441.000000 
z"/>
<path fill="#1F7CF1" opacity="1.000000" stroke="none" 
	d="
M1441.000000,1163.531494 
	C1440.624390,1163.913574 1440.248657,1163.827271 1439.520020,1163.917725 
	C1439.541016,1157.498657 1439.915039,1150.902954 1440.644531,1144.153564 
	C1441.000000,1150.354370 1441.000000,1156.708862 1441.000000,1163.531494 
z"/>
<path fill="#FFFFFF" opacity="1.000000" stroke="none" 
	d="
M379.493408,363.808441 
	C379.492981,363.452087 379.492584,363.095734 379.618530,362.250031 
	C379.646332,361.449524 379.547760,361.138336 379.449188,360.827179 
	C379.415131,347.854767 379.381104,334.882385 379.227844,321.453918 
	C379.227844,307.884338 379.349182,294.770844 379.463745,281.657288 
	C379.480927,279.692474 379.466156,277.727356 379.466156,275.006622 
	C404.685547,275.006622 429.384399,275.006622 455.000854,275.004822 
	C493.888336,275.023499 531.858521,274.952393 569.828064,275.084106 
	C641.576233,275.333008 713.326233,275.477783 785.070251,276.187439 
	C800.876343,276.343781 816.717041,278.211182 832.442993,280.109100 
	C859.178467,283.335693 885.265076,289.552673 910.476746,299.159882 
	C945.338806,312.444550 976.395813,331.601715 1002.220764,358.798950 
	C1006.102661,362.887177 1010.000854,366.959900 1014.003601,371.361328 
	C1015.538025,373.522308 1017.129456,375.256165 1018.355469,377.218262 
	C1026.869507,390.843536 1035.307861,404.516205 1043.832764,418.534119 
	C1052.968140,438.499573 1059.627563,458.937439 1063.363159,480.170502 
	C1066.029907,495.328064 1067.385010,510.716370 1069.255127,526.420288 
	C1070.829224,548.951111 1069.268188,570.946472 1066.464355,593.162842 
	C1066.041016,595.587708 1065.928833,597.757568 1065.546997,600.073242 
	C1065.241943,600.813477 1065.206421,601.408020 1065.106812,602.416748 
	C1061.336914,617.886230 1057.631104,632.941467 1053.676514,648.253906 
	C1046.498413,663.291382 1039.568848,678.071533 1032.384521,693.059814 
	C1022.215149,709.560913 1010.080994,724.115845 996.789673,738.147217 
	C976.076660,758.371094 952.812195,774.439209 926.854248,787.014771 
	C927.830505,788.207153 928.304260,788.891235 928.880371,789.474121 
	C945.980347,806.777466 959.572876,826.595459 971.023254,847.976868 
	C980.171143,865.058716 989.452698,882.068970 998.738708,899.469421 
	C1000.254822,902.619324 1001.672302,905.429565 1003.165100,908.199219 
	C1013.374695,927.141174 1023.600098,946.074585 1033.870117,965.372620 
	C1042.943481,982.489868 1051.967285,999.245178 1061.029053,1016.354980 
	C1070.996704,1035.142578 1080.926392,1053.575684 1090.905029,1072.369263 
	C1099.913452,1089.707642 1108.840820,1106.702637 1117.855347,1123.651367 
	C1120.086548,1127.846313 1122.600342,1131.890991 1125.023071,1136.355713 
	C1126.745605,1140.073120 1128.429321,1143.439575 1130.057129,1147.137451 
	C1129.984741,1147.916382 1129.968384,1148.363892 1129.492188,1148.887939 
	C1122.686035,1149.063965 1116.339600,1149.163452 1109.534180,1149.164307 
	C1090.483276,1149.046143 1071.891479,1148.988647 1053.299805,1149.019287 
	C1039.198120,1149.042480 1025.096680,1149.177856 1010.536316,1149.163086 
	C997.964172,1149.045532 985.850708,1148.988281 973.737549,1149.020508 
	C955.824341,1149.068115 937.911316,1149.179443 919.539429,1149.161377 
	C912.451599,1149.043579 905.811462,1148.792236 899.197815,1149.104492 
	C895.481750,1149.279907 893.653748,1147.908203 891.992249,1144.678467 
	C884.951782,1130.993652 877.607910,1117.464966 870.303711,1103.521484 
	C860.614868,1084.792236 851.035950,1066.400269 841.367859,1048.055298 
	C833.023132,1032.221313 824.576782,1016.440918 816.129211,1000.294006 
	C814.469788,997.306030 812.684448,994.749390 811.270996,992.001526 
	C802.069031,974.112671 792.952881,956.179626 783.794678,938.268250 
	C782.452393,935.643066 781.041138,933.052979 779.652405,930.451660 
	C767.573059,907.825073 755.922668,884.955139 743.277283,862.649353 
	C732.721375,844.029480 716.107117,833.142822 694.921448,829.877075 
	C685.469666,828.420105 675.870605,827.364441 666.320679,827.208069 
	C642.994568,826.825928 619.658142,827.070068 596.325867,827.081543 
	C595.208130,827.082092 594.090454,827.268921 592.426086,827.417969 
	C592.426086,829.430542 592.425964,831.223145 592.426086,833.015747 
	C592.429932,898.346130 592.431152,963.676575 592.451782,1029.006958 
	C592.452332,1030.659546 592.665771,1032.312256 592.635254,1034.415283 
	C592.472107,1064.091309 592.442871,1093.317017 592.450989,1122.542603 
	C592.451843,1125.683838 592.668945,1128.824951 592.643066,1132.416748 
	C592.500488,1138.110229 592.500488,1143.353149 592.500488,1149.003296 
	C589.835571,1149.003296 588.037781,1149.003174 586.239990,1149.003296 
	C562.625916,1149.005127 539.011719,1148.979736 515.397705,1149.019897 
	C503.265717,1149.040649 491.133942,1149.178589 478.543884,1149.157715 
	C451.391937,1149.122559 424.698151,1149.193115 397.547241,1149.156738 
	C391.717834,1149.114990 386.345520,1149.179932 380.593994,1148.989502 
	C379.962158,1146.459229 379.488617,1144.184448 379.488373,1141.909546 
	C379.467010,954.417297 379.483795,766.924988 379.480652,579.432739 
	C379.480621,576.945801 379.261810,574.458923 379.279419,571.524414 
	C379.444794,565.276917 379.530487,559.476624 379.496277,553.677063 
	C379.406464,538.441956 379.264435,523.207092 379.276825,507.524414 
	C379.320984,487.707703 379.231567,468.338745 379.275665,448.524536 
	C379.440002,443.119934 379.470795,438.160492 379.661621,432.758545 
	C379.714630,430.147247 379.607605,427.978485 379.499573,425.353638 
	C379.495636,415.998535 379.492737,407.099518 379.649231,397.740784 
	C379.703552,386.123535 379.598480,374.965973 379.493408,363.808441 
M757.744507,461.187256 
	C755.821167,461.158844 753.897827,461.130432 751.046509,460.986542 
	C697.892334,460.986542 644.738159,460.986542 591.265381,460.986542 
	C591.265381,466.042511 591.252808,470.349426 591.267578,474.656281 
	C591.348206,498.112091 591.435547,521.567932 591.313049,545.936707 
	C591.313049,577.983032 591.313049,610.029358 591.313049,642.463013 
	C594.062622,642.463013 596.040222,642.462952 598.017822,642.463013 
	C643.482910,642.463745 688.948547,642.580627 734.412842,642.393372 
	C747.834106,642.338135 761.354614,642.272339 774.641846,640.661987 
	C787.595398,639.092041 800.636169,636.569641 813.051331,632.619446 
	C832.080322,626.564819 847.377563,615.384827 854.323303,595.427856 
	C855.643066,591.635864 857.094910,587.889954 858.869141,583.477295 
	C861.608765,570.143250 863.051453,556.598999 861.772583,543.101013 
	C860.664551,531.406067 859.027527,519.511841 855.563904,508.344727 
	C849.537476,488.914551 834.592041,477.864777 816.014282,471.191681 
	C797.267456,464.457886 777.772095,462.415100 757.744507,461.187256 
z"/>
<path fill="#1F7CF1" opacity="1.000000" stroke="none" 
	d="
M1013.891479,371.039795 
	C1010.000854,366.959900 1006.102661,362.887177 1002.220764,358.798950 
	C976.395813,331.601715 945.338806,312.444550 910.476746,299.159882 
	C885.265076,289.552673 859.178467,283.335693 832.442993,280.109100 
	C816.717041,278.211182 800.876343,276.343781 785.070251,276.187439 
	C713.326233,275.477783 641.576233,275.333008 569.828064,275.084106 
	C531.858521,274.952393 493.888336,275.023499 455.459442,274.901367 
	C456.197876,273.644745 457.202484,271.865570 458.621277,271.427338 
	C485.531006,263.115875 512.995483,257.095917 540.845947,253.143356 
	C559.887634,250.440933 579.075073,248.600388 598.253235,247.077179 
	C613.807739,245.841766 629.440063,245.348541 645.047485,245.077438 
	C663.974731,244.748688 682.948059,244.264786 701.835388,245.192764 
	C723.524048,246.258377 745.170776,248.509338 766.777771,250.792847 
	C782.117859,252.414062 797.431335,254.542709 812.629517,257.178345 
	C827.855774,259.818878 842.973755,263.150757 858.051270,266.567841 
	C888.451172,273.457458 918.344055,282.080017 947.230957,293.919678 
	C989.445923,311.221985 1029.508301,332.504578 1066.457764,359.362854 
	C1090.174438,376.602295 1112.557739,395.521729 1132.382690,417.140076 
	C1144.932861,430.825653 1156.442139,445.497620 1167.967407,460.083466 
	C1185.056030,481.709900 1198.685425,505.537842 1210.577148,530.320801 
	C1221.844238,553.801514 1230.145508,578.399048 1236.144775,603.737732 
	C1239.130127,616.346558 1242.134644,628.982117 1244.290405,641.747498 
	C1246.692139,655.969055 1248.479126,670.317810 1249.919312,684.672852 
	C1251.906616,704.480469 1253.318848,724.345886 1254.979736,744.610474 
	C1251.079834,739.316589 1247.013794,733.702393 1243.309814,727.858704 
	C1236.141968,716.549927 1229.177979,705.111938 1222.057739,692.968933 
	C1221.922729,691.214661 1221.976685,690.194946 1221.778809,689.226746 
	C1218.293091,672.177856 1215.153809,655.046265 1211.158936,638.116760 
	C1207.309082,621.802490 1203.116089,605.526001 1198.086548,589.543701 
	C1191.125366,567.423767 1181.796143,546.176697 1169.953735,526.234924 
	C1160.455200,510.239960 1150.454468,494.462128 1139.531006,479.419891 
	C1130.675781,467.225677 1120.038086,456.334595 1110.332520,444.746948 
	C1096.691772,428.460754 1080.541382,414.818207 1064.103882,401.605774 
	C1050.655762,390.796082 1036.259155,381.170105 1022.367126,370.905579 
	C1019.330078,368.661621 1016.671814,367.887848 1013.891479,371.039795 
z"/>
<path fill="#1F7CF1" opacity="1.000000" stroke="none" 
	d="
M1438.553101,1166.164307 
	C1438.205200,1171.890625 1437.517700,1177.764771 1436.504883,1183.865601 
	C1436.857544,1178.165527 1437.535522,1172.238770 1438.553101,1166.164307 
z"/>
<path fill="#1F7CF1" opacity="1.000000" stroke="none" 
	d="
M1435.563232,1186.143555 
	C1435.506836,1188.872559 1435.122803,1191.728271 1434.439697,1194.826904 
	C1434.505493,1192.136597 1434.870605,1189.203491 1435.563232,1186.143555 
z"/>
<path fill="#1F7CF1" opacity="1.000000" stroke="none" 
	d="
M1433.553467,1197.138672 
	C1433.197266,1200.223633 1432.516602,1203.428833 1431.585205,1206.914307 
	C1431.965820,1203.882568 1432.597412,1200.570801 1433.553467,1197.138672 
z"/>
<path fill="#1F7CF1" opacity="1.000000" stroke="none" 
	d="
M1429.610352,1212.090332 
	C1429.875122,1212.458252 1429.907471,1212.893799 1429.871826,1213.651001 
	C1429.661865,1213.367798 1429.519775,1212.762817 1429.610352,1212.090332 
z"/>
<path fill="#1F7CF1" opacity="1.000000" stroke="none" 
	d="
M1427.702148,1219.220703 
	C1427.766724,1219.366211 1427.668579,1219.697876 1427.330078,1220.157471 
	C1427.229736,1219.987549 1427.379883,1219.694580 1427.702148,1219.220703 
z"/>
<path fill="#1A66C4" opacity="1.000000" stroke="none" 
	d="
M1109.993286,1149.262939 
	C1116.339600,1149.163452 1122.686035,1149.063965 1129.801270,1148.896240 
	C1130.417969,1148.153931 1130.265625,1147.479980 1130.113159,1146.805908 
	C1128.429321,1143.439575 1126.745605,1140.073120 1125.403198,1136.328857 
	C1127.143311,1134.162109 1129.595093,1132.471802 1129.773071,1130.568970 
	C1131.101074,1116.360474 1132.157959,1102.119751 1132.950317,1087.869751 
	C1133.817139,1072.280762 1134.206299,1056.666016 1134.988037,1041.071655 
	C1136.243042,1016.030518 1137.827637,991.004761 1138.937012,965.957703 
	C1139.871216,944.871643 1140.115356,923.754761 1141.067627,902.669739 
	C1141.726318,888.082825 1143.118286,873.529968 1144.095947,858.956116 
	C1145.440186,838.919067 1147.337891,818.892273 1147.838623,798.832153 
	C1148.460693,773.912048 1148.693115,748.944519 1145.082275,724.130432 
	C1142.645996,707.387512 1141.525879,690.406006 1138.236938,673.844971 
	C1132.819092,646.563049 1124.971191,619.950439 1113.463379,594.441101 
	C1103.488892,572.330566 1091.294189,551.613281 1077.162109,531.996338 
	C1075.304321,529.417542 1073.854980,525.451355 1069.325439,526.001709 
	C1067.385010,510.716370 1066.029907,495.328064 1063.363159,480.170502 
	C1059.627563,458.937439 1052.968140,438.499573 1044.078491,418.422180 
	C1044.874512,418.398468 1045.688599,418.718109 1046.070923,419.314484 
	C1063.411987,446.365509 1080.692261,473.455444 1098.028320,500.509705 
	C1123.719116,540.602173 1149.471558,580.655029 1175.136230,620.764221 
	C1180.240234,628.740906 1185.066772,636.895203 1190.021240,644.967651 
	C1190.498291,646.897156 1190.522217,649.110474 1191.524658,650.710938 
	C1199.001099,662.647583 1199.299805,676.326416 1200.854492,689.588928 
	C1204.342407,719.342529 1205.877197,749.261597 1204.844971,779.189148 
	C1203.975464,804.395386 1201.756836,829.555115 1200.135498,854.735474 
	C1199.090210,870.973389 1198.078979,887.213501 1196.989502,903.448425 
	C1196.089478,916.861877 1194.854858,930.257751 1194.225586,943.682861 
	C1193.765869,953.492493 1194.119263,963.337891 1193.988159,973.165710 
	C1193.346558,1021.261841 1192.692017,1069.357788 1191.980469,1117.453003 
	C1191.746582,1133.254395 1192.078857,1149.114014 1190.805786,1164.837891 
	C1189.146362,1185.335815 1187.015869,1205.878296 1183.456787,1226.114746 
	C1180.444214,1243.243408 1176.306641,1260.391113 1170.463623,1276.742920 
	C1164.790161,1292.619995 1157.202271,1307.999634 1148.867432,1322.697266 
	C1134.789185,1347.523071 1115.016235,1367.418579 1091.362305,1383.392456 
	C1070.024048,1397.802368 1046.630981,1407.408691 1021.697510,1413.677979 
	C1003.822327,1418.172485 985.698608,1419.797241 967.382690,1419.970703 
	C952.221191,1420.114258 937.036804,1420.491577 921.899780,1419.865723 
	C905.828308,1419.201294 889.776367,1417.724121 873.760376,1416.149780 
	C855.426392,1414.347412 837.143555,1412.026855 818.834229,1409.969971 
	C801.355225,1408.006348 783.873535,1406.065918 766.385437,1404.185913 
	C763.911377,1403.919922 761.393066,1404.089233 758.897644,1403.994263 
	C735.981567,1403.122559 713.071472,1402.009033 690.147766,1401.468628 
	C681.046326,1401.254028 671.913696,1402.277954 662.797791,1402.783203 
	C656.164307,1403.150635 649.526184,1403.483887 642.905579,1404.022461 
	C628.682800,1405.179321 614.470581,1406.464966 600.253052,1407.686646 
	C591.156982,1408.468384 582.059753,1409.238037 572.961182,1409.990234 
	C571.801514,1410.086182 570.604248,1409.893799 569.468689,1410.090454 
	C561.230042,1411.517090 553.082642,1412.381226 545.343811,1407.030029 
	C544.483093,1406.450684 543.995422,1405.888794 543.218445,1404.793823 
	C530.951782,1385.507202 518.974365,1366.753540 506.853394,1347.687988 
	C500.149689,1336.911499 493.589539,1326.446899 487.393555,1316.006592 
	C491.304047,1317.666992 494.752594,1320.418701 498.414124,1320.739624 
	C511.970428,1321.927246 525.598511,1322.886353 539.196716,1322.849731 
	C554.964172,1322.807251 570.729004,1321.635254 586.494080,1320.933350 
	C593.628235,1320.615723 600.764465,1320.319946 607.892395,1319.891602 
	C628.932739,1318.627197 649.956665,1316.543213 671.010620,1316.190186 
	C697.894653,1315.739258 724.802612,1316.609253 751.698364,1317.029785 
	C761.666626,1317.185669 771.637817,1317.526978 781.592529,1318.063721 
	C791.700684,1318.608765 801.806946,1319.322632 811.883850,1320.280396 
	C826.911865,1321.708984 841.900452,1323.554443 856.931152,1324.950195 
	C865.027283,1325.702026 873.172302,1326.159790 881.301758,1326.268311 
	C896.748108,1326.474731 912.212830,1326.731445 927.643066,1326.195190 
	C937.389465,1325.856445 947.063049,1323.528687 956.811768,1323.129517 
	C978.408997,1322.245239 998.413086,1315.723633 1017.369385,1306.137207 
	C1041.033447,1294.169922 1059.317505,1275.970703 1074.007446,1254.021118 
	C1086.835083,1234.854370 1095.651978,1213.826904 1101.632690,1191.740845 
	C1105.395264,1177.845825 1107.270996,1163.439697 1109.993286,1149.262939 
z"/>
<path fill="#1E7AEC" opacity="1.000000" stroke="none" 
	d="
M1190.299072,645.158264 
	C1185.066772,636.895203 1180.240234,628.740906 1175.136230,620.764221 
	C1149.471558,580.655029 1123.719116,540.602173 1098.028320,500.509705 
	C1080.692261,473.455444 1063.411987,446.365509 1046.070923,419.314484 
	C1045.688599,418.718109 1044.874512,418.398468 1044.016113,418.061707 
	C1035.307861,404.516205 1026.869507,390.843536 1018.355469,377.218262 
	C1017.129456,375.256165 1015.538025,373.522308 1014.003601,371.361328 
	C1016.671814,367.887848 1019.330078,368.661621 1022.367126,370.905579 
	C1036.259155,381.170105 1050.655762,390.796082 1064.103882,401.605774 
	C1080.541382,414.818207 1096.691772,428.460754 1110.332520,444.746948 
	C1120.038086,456.334595 1130.675781,467.225677 1139.531006,479.419891 
	C1150.454468,494.462128 1160.455200,510.239960 1169.953735,526.234924 
	C1181.796143,546.176697 1191.125366,567.423767 1198.086548,589.543701 
	C1203.116089,605.526001 1207.309082,621.802490 1211.158936,638.116760 
	C1215.153809,655.046265 1218.293091,672.177856 1221.778809,689.226746 
	C1221.976685,690.194946 1221.922729,691.214661 1221.979248,692.628906 
	C1215.142090,682.683838 1208.308594,672.322388 1201.482666,661.955933 
	C1197.840576,656.424744 1194.211792,650.884888 1190.299072,645.158264 
z"/>
<path fill="#1D77E7" opacity="1.000000" stroke="none" 
	d="
M506.996948,1348.000000 
	C518.974365,1366.753540 530.951782,1385.507202 543.012207,1404.603760 
	C534.576355,1399.205444 524.925171,1401.381226 515.631042,1400.987549 
	C500.694092,1400.354980 485.630096,1400.651123 470.854553,1398.739990 
	C445.626709,1395.477051 420.968445,1389.572266 397.364807,1379.509644 
	C378.107666,1371.299927 360.052185,1361.085449 343.489685,1348.481934 
	C325.567596,1334.843750 310.155121,1318.593384 296.286743,1300.732788 
	C283.561371,1284.344116 273.520660,1266.371826 263.817719,1248.253662 
	C257.753204,1236.929565 253.485886,1224.563599 249.204361,1212.386597 
	C244.838318,1199.969116 241.245605,1187.265625 237.691711,1174.581665 
	C235.399689,1166.401245 233.631348,1158.062744 231.906815,1149.737305 
	C229.276855,1137.041016 226.634415,1124.337036 224.490631,1111.553711 
	C223.182373,1103.752563 222.556976,1095.811768 222.053619,1087.906372 
	C221.180222,1074.190063 222.587128,1059.988525 219.454971,1046.844116 
	C215.725159,1031.191528 219.397110,1015.598572 216.761444,1000.400879 
	C210.937820,966.821411 215.035110,933.127502 214.186432,899.512512 
	C213.337311,865.879761 213.939621,832.208618 214.094116,798.555176 
	C214.109436,795.218079 215.482925,791.896118 216.137222,788.549744 
	C216.516281,786.611145 216.947159,784.639526 216.961273,782.679932 
	C217.040405,771.684570 215.220795,760.312561 217.444458,749.786316 
	C220.307907,736.231628 218.212967,722.412842 221.664078,709.093689 
	C221.992157,707.827515 221.987411,706.451538 221.984604,705.126831 
	C221.955658,691.508545 223.268265,678.076660 226.674088,664.830994 
	C227.854599,660.239929 227.851944,655.354919 228.563126,650.630310 
	C229.635040,643.509033 230.711197,636.382507 232.061569,629.310852 
	C233.336670,622.633301 234.868988,615.999695 236.475967,609.392456 
	C237.652634,604.554443 239.066422,599.770447 240.493622,594.997986 
	C242.860733,587.082397 245.076447,579.109131 247.800415,571.315491 
	C252.669556,557.384216 256.951050,543.141052 263.157410,529.810059 
	C271.399048,512.107300 280.470306,494.677399 290.645142,478.022247 
	C299.530640,463.477600 309.446320,449.291687 320.713562,436.544220 
	C333.535339,422.037872 348.329346,409.269714 362.340912,395.823975 
	C365.452484,392.838043 368.750458,390.007538 372.212036,387.442047 
	C373.854004,386.225189 376.083191,385.800720 378.475952,385.469177 
	C379.100342,390.014282 379.295105,394.107391 379.489838,398.200531 
	C379.492737,407.099518 379.495636,415.998535 379.331787,425.691986 
	C379.277161,428.724670 379.389374,430.962860 379.501587,433.201080 
	C379.470795,438.160492 379.440002,443.119934 378.936157,448.535400 
	C376.588043,449.882477 374.307190,450.362274 372.911621,451.739258 
	C368.180420,456.407471 363.729370,461.362732 359.230469,466.262665 
	C339.968933,487.241150 324.275574,510.737274 311.575653,536.116638 
	C298.304352,562.637817 287.491547,590.173889 280.721649,619.169495 
	C277.249420,634.041138 273.122314,648.777161 270.171661,663.748047 
	C267.457489,677.518982 265.669647,691.491028 263.942596,705.432556 
	C262.311005,718.603577 261.175262,731.840515 260.044617,745.067505 
	C259.408081,752.513855 259.326752,760.005981 258.810577,767.464722 
	C257.951935,779.871887 255.971207,792.283691 256.161743,804.667419 
	C257.211548,872.903809 253.108368,941.199036 258.852173,1009.392395 
	C260.536957,1029.395142 260.679596,1049.511230 264.715271,1069.297729 
	C265.964447,1075.422241 266.163422,1081.754639 267.018188,1087.967651 
	C268.053345,1095.491943 268.851318,1103.085938 270.515320,1110.477783 
	C272.906830,1121.101440 275.844666,1131.610474 278.808594,1142.095093 
	C282.909027,1156.599976 286.157562,1171.477661 291.770264,1185.389160 
	C298.518890,1202.116089 306.541779,1218.470337 315.533752,1234.111694 
	C324.876221,1250.362793 335.890472,1265.619141 349.353149,1278.994873 
	C362.756775,1292.312012 377.089966,1304.230347 393.332611,1314.010254 
	C413.980286,1326.442383 436.160980,1334.762329 459.574280,1339.731323 
	C475.260254,1343.060425 491.181183,1345.282471 506.996948,1348.000000 
z"/>
<path fill="#92B4DF" opacity="1.000000" stroke="none" 
	d="
M379.649231,397.740784 
	C379.295105,394.107391 379.100342,390.014282 378.849609,385.465210 
	C378.915588,378.201050 379.037567,371.392883 379.326477,364.196564 
	C379.598480,374.965973 379.703552,386.123535 379.649231,397.740784 
z"/>
<path fill="#92B4DF" opacity="1.000000" stroke="none" 
	d="
M379.327026,361.048462 
	C379.547760,361.138336 379.646332,361.449524 379.618225,361.982758 
	C379.395996,361.893127 379.300415,361.581421 379.327026,361.048462 
z"/>
<path fill="#185FB6" opacity="1.000000" stroke="none" 
	d="
M1109.534180,1149.164307 
	C1107.270996,1163.439697 1105.395264,1177.845825 1101.632690,1191.740845 
	C1095.651978,1213.826904 1086.835083,1234.854370 1074.007446,1254.021118 
	C1059.317505,1275.970703 1041.033447,1294.169922 1017.369385,1306.137207 
	C998.413086,1315.723633 978.408997,1322.245239 956.811768,1323.129517 
	C947.063049,1323.528687 937.389465,1325.856445 927.643066,1326.195190 
	C912.212830,1326.731445 896.748108,1326.474731 881.301758,1326.268311 
	C873.172302,1326.159790 865.027283,1325.702026 856.931152,1324.950195 
	C841.900452,1323.554443 826.911865,1321.708984 811.883850,1320.280396 
	C801.806946,1319.322632 791.700684,1318.608765 781.592529,1318.063721 
	C771.637817,1317.526978 761.666626,1317.185669 751.698364,1317.029785 
	C724.802612,1316.609253 697.894653,1315.739258 671.010620,1316.190186 
	C649.956665,1316.543213 628.932739,1318.627197 607.892395,1319.891602 
	C600.764465,1320.319946 593.628235,1320.615723 586.494080,1320.933350 
	C570.729004,1321.635254 554.964172,1322.807251 539.196716,1322.849731 
	C525.598511,1322.886353 511.970428,1321.927246 498.414124,1320.739624 
	C494.752594,1320.418701 491.304047,1317.666992 487.213104,1315.720215 
	C483.103790,1309.941650 479.539062,1304.473511 475.830322,1298.697754 
	C473.217041,1294.458374 470.798981,1290.493408 468.269592,1286.600708 
	C456.868286,1269.053589 445.435425,1251.526733 433.939545,1233.652222 
	C421.508728,1213.945557 409.099731,1194.612671 396.820007,1175.197998 
	C391.402405,1166.632568 386.247406,1157.900879 380.973236,1149.244873 
	C386.345520,1149.179932 391.717834,1149.114990 397.555847,1149.526367 
	C401.312469,1155.461304 403.892761,1161.548950 408.047638,1166.242920 
	C415.808685,1175.010864 423.991394,1183.553345 432.926086,1191.090332 
	C440.858704,1197.781982 449.653046,1203.706055 458.765961,1208.691284 
	C477.258362,1218.807617 497.007324,1225.719116 518.071899,1228.239136 
	C535.186584,1230.286621 552.304199,1233.366699 569.467346,1233.721558 
	C600.731934,1234.368164 632.030823,1233.157959 663.316345,1233.068848 
	C680.775146,1233.019043 698.235840,1233.921509 715.695801,1233.927002 
	C732.489319,1233.932251 749.281738,1233.201416 766.076965,1233.038818 
	C783.339050,1232.871704 800.609131,1233.260498 817.866455,1232.926880 
	C835.136597,1232.593140 852.390625,1231.466431 869.660461,1231.056641 
	C887.080139,1230.642822 904.230835,1228.093750 920.554138,1222.383789 
	C934.300476,1217.575439 947.480713,1211.010498 960.607117,1204.599609 
	C982.476196,1193.919067 998.021179,1176.720703 1009.230957,1155.401733 
	C1010.201111,1153.556519 1010.424805,1151.318604 1010.995178,1149.263184 
	C1025.096680,1149.177856 1039.198120,1149.042480 1053.299805,1149.019287 
	C1071.891479,1148.988647 1090.483276,1149.046143 1109.534180,1149.164307 
z"/>
<path fill="#134C91" opacity="1.000000" stroke="none" 
	d="
M592.779907,1033.964844 
	C592.665771,1032.312256 592.452332,1030.659546 592.451782,1029.006958 
	C592.431152,963.676575 592.429932,898.346130 592.426086,833.015747 
	C592.425964,831.223145 592.426086,829.430542 592.426086,827.417969 
	C594.090454,827.268921 595.208130,827.082092 596.325867,827.081543 
	C619.658142,827.070068 642.994568,826.825928 666.320679,827.208069 
	C675.870605,827.364441 685.469666,828.420105 694.921448,829.877075 
	C716.107117,833.142822 732.721375,844.029480 743.277283,862.649353 
	C755.922668,884.955139 767.573059,907.825073 779.652405,930.451660 
	C781.041138,933.052979 782.452393,935.643066 783.794678,938.268250 
	C792.952881,956.179626 802.069031,974.112671 811.270996,992.001526 
	C812.684448,994.749390 814.469788,997.306030 815.963135,1000.663696 
	C815.701294,1003.157471 815.770935,1004.989380 815.358887,1006.705627 
	C814.939758,1008.451111 814.496826,1010.601624 813.273499,1011.664368 
	C809.900024,1014.595032 806.337646,1017.453186 802.448303,1019.618530 
	C789.530396,1026.810303 776.693604,1034.232300 763.334351,1040.522095 
	C750.937927,1046.358643 738.303345,1052.307861 724.027649,1051.972778 
	C702.774475,1051.473999 681.502563,1053.130859 660.261475,1050.134888 
	C643.490356,1047.769531 626.790100,1045.335205 610.581177,1040.335571 
	C604.564880,1038.479858 598.708984,1036.103638 592.779907,1033.964844 
z"/>
<path fill="#1C73DF" opacity="1.000000" stroke="none" 
	d="
M475.974365,1299.005493 
	C479.539062,1304.473511 483.103790,1309.941650 486.848938,1315.696045 
	C493.589539,1326.446899 500.149689,1336.911499 506.853394,1347.687988 
	C491.181183,1345.282471 475.260254,1343.060425 459.574280,1339.731323 
	C436.160980,1334.762329 413.980286,1326.442383 393.332611,1314.010254 
	C377.089966,1304.230347 362.756775,1292.312012 349.353149,1278.994873 
	C335.890472,1265.619141 324.876221,1250.362793 315.533752,1234.111694 
	C306.541779,1218.470337 298.518890,1202.116089 291.770264,1185.389160 
	C286.157562,1171.477661 282.909027,1156.599976 278.808594,1142.095093 
	C275.844666,1131.610474 272.906830,1121.101440 270.515320,1110.477783 
	C268.851318,1103.085938 268.053345,1095.491943 267.018188,1087.967651 
	C266.163422,1081.754639 265.964447,1075.422241 264.715271,1069.297729 
	C260.679596,1049.511230 260.536957,1029.395142 258.852173,1009.392395 
	C253.108368,941.199036 257.211548,872.903809 256.161743,804.667419 
	C255.971207,792.283691 257.951935,779.871887 258.810577,767.464722 
	C259.326752,760.005981 259.408081,752.513855 260.044617,745.067505 
	C261.175262,731.840515 262.311005,718.603577 263.942596,705.432556 
	C265.669647,691.491028 267.457489,677.518982 270.171661,663.748047 
	C273.122314,648.777161 277.249420,634.041138 280.721649,619.169495 
	C287.491547,590.173889 298.304352,562.637817 311.575653,536.116638 
	C324.275574,510.737274 339.968933,487.241150 359.230469,466.262665 
	C363.729370,461.362732 368.180420,456.407471 372.911621,451.739258 
	C374.307190,450.362274 376.588043,449.882477 378.802673,448.980621 
	C379.231567,468.338745 379.320984,487.707703 378.923096,507.532562 
	C376.656616,508.626099 374.102875,508.722168 373.219208,509.985992 
	C365.217804,521.429810 356.768494,532.659546 349.915985,544.780518 
	C342.662537,557.610718 336.685944,571.204102 330.764526,584.732422 
	C326.368073,594.776733 322.350677,605.071838 319.240326,615.573853 
	C314.815765,630.513367 310.839722,645.632690 307.653961,660.880310 
	C303.616333,680.204834 299.740479,699.632019 297.290436,719.202209 
	C294.101593,744.673462 292.220490,770.315308 290.110321,795.911255 
	C289.278107,806.005920 289.133026,816.173462 289.074738,826.310120 
	C289.033752,833.443665 289.749115,840.578430 289.986298,847.717224 
	C291.195190,884.100281 288.737091,920.481140 291.538666,956.932007 
	C293.175537,978.229004 292.703430,999.758484 294.983276,1021.103516 
	C295.882019,1029.517944 296.136108,1038.023682 297.455963,1046.365723 
	C299.603088,1059.936157 302.184387,1073.447510 304.957031,1086.906616 
	C307.584290,1099.660156 310.262177,1112.433594 313.722778,1124.975952 
	C316.618622,1135.471436 320.316620,1145.788330 324.316681,1155.924927 
	C328.760529,1167.186157 333.095917,1178.631226 338.987122,1189.151611 
	C352.192078,1212.732422 367.590698,1234.686646 388.624481,1252.335449 
	C402.488922,1263.968506 417.559265,1273.396851 433.508759,1281.784546 
	C446.697937,1288.720703 462.553864,1289.055420 474.505524,1298.830566 
	C474.827484,1299.093872 475.477417,1298.956177 475.974365,1299.005493 
z"/>
<path fill="#1759AC" opacity="1.000000" stroke="none" 
	d="
M1010.536316,1149.162964 
	C1010.424805,1151.318604 1010.201111,1153.556519 1009.230957,1155.401733 
	C998.021179,1176.720703 982.476196,1193.919067 960.607117,1204.599609 
	C947.480713,1211.010498 934.300476,1217.575439 920.554138,1222.383789 
	C904.230835,1228.093750 887.080139,1230.642822 869.660461,1231.056641 
	C852.390625,1231.466431 835.136597,1232.593140 817.866455,1232.926880 
	C800.609131,1233.260498 783.339050,1232.871704 766.076965,1233.038818 
	C749.281738,1233.201416 732.489319,1233.932251 715.695801,1233.927002 
	C698.235840,1233.921509 680.775146,1233.019043 663.316345,1233.068848 
	C632.030823,1233.157959 600.731934,1234.368164 569.467346,1233.721558 
	C552.304199,1233.366699 535.186584,1230.286621 518.071899,1228.239136 
	C497.007324,1225.719116 477.258362,1218.807617 458.765961,1208.691284 
	C449.653046,1203.706055 440.858704,1197.781982 432.926086,1191.090332 
	C423.991394,1183.553345 415.808685,1175.010864 408.047638,1166.242920 
	C403.892761,1161.548950 401.312469,1155.461304 398.012939,1149.633057 
	C424.698151,1149.193115 451.391937,1149.122559 478.571838,1149.502686 
	C479.909149,1151.100708 480.531006,1152.597900 481.652374,1153.334106 
	C485.951874,1156.156982 490.208221,1159.174316 494.847992,1161.327393 
	C512.688599,1169.606689 530.990417,1176.613892 550.665527,1179.172729 
	C566.285095,1181.204224 581.890808,1184.282593 597.566833,1184.751587 
	C634.328247,1185.851562 671.128235,1185.660767 707.912354,1186.012451 
	C710.070190,1186.032959 712.225220,1186.297119 714.383484,1186.335815 
	C723.852905,1186.505493 733.364197,1187.259521 742.783875,1186.640015 
	C759.495361,1185.540894 776.120972,1183.009644 792.837708,1182.145996 
	C818.917236,1180.798340 844.842651,1178.628540 870.367920,1172.877808 
	C886.916077,1169.149658 902.367554,1162.666260 916.851624,1153.913330 
	C918.305969,1153.034546 918.968262,1150.844849 919.998169,1149.263550 
	C937.911316,1149.179443 955.824341,1149.068115 973.737549,1149.020508 
	C985.850708,1148.988281 997.964172,1149.045532 1010.536316,1149.162964 
z"/>
<path fill="#1C70D9" opacity="1.000000" stroke="none" 
	d="
M475.830353,1298.697754 
	C475.477417,1298.956177 474.827484,1299.093872 474.505524,1298.830566 
	C462.553864,1289.055420 446.697937,1288.720703 433.508759,1281.784546 
	C417.559265,1273.396851 402.488922,1263.968506 388.624481,1252.335449 
	C367.590698,1234.686646 352.192078,1212.732422 338.987122,1189.151611 
	C333.095917,1178.631226 328.760529,1167.186157 324.316681,1155.924927 
	C320.316620,1145.788330 316.618622,1135.471436 313.722778,1124.975952 
	C310.262177,1112.433594 307.584290,1099.660156 304.957031,1086.906616 
	C302.184387,1073.447510 299.603088,1059.936157 297.455963,1046.365723 
	C296.136108,1038.023682 295.882019,1029.517944 294.983276,1021.103516 
	C292.703430,999.758484 293.175537,978.229004 291.538666,956.932007 
	C288.737091,920.481140 291.195190,884.100281 289.986298,847.717224 
	C289.749115,840.578430 289.033752,833.443665 289.074738,826.310120 
	C289.133026,816.173462 289.278107,806.005920 290.110321,795.911255 
	C292.220490,770.315308 294.101593,744.673462 297.290436,719.202209 
	C299.740479,699.632019 303.616333,680.204834 307.653961,660.880310 
	C310.839722,645.632690 314.815765,630.513367 319.240326,615.573853 
	C322.350677,605.071838 326.368073,594.776733 330.764526,584.732422 
	C336.685944,571.204102 342.662537,557.610718 349.915985,544.780518 
	C356.768494,532.659546 365.217804,521.429810 373.219208,509.985992 
	C374.102875,508.722168 376.656616,508.626099 378.789490,507.980286 
	C379.264435,523.207092 379.406464,538.441956 379.496277,553.677063 
	C379.530487,559.476624 379.444794,565.276917 378.953735,571.543091 
	C376.799438,573.401855 374.498932,574.461121 373.518158,576.245667 
	C369.756104,583.090759 365.791382,589.932251 363.045532,597.206665 
	C356.415863,614.770325 349.672791,632.355530 344.411713,650.351929 
	C339.808716,666.097229 336.884735,682.360596 333.744904,698.497375 
	C331.398773,710.555054 329.553772,722.735718 328.102173,734.934937 
	C326.612305,747.456238 325.809052,760.061646 324.818237,772.639221 
	C323.488739,789.515930 321.445801,806.390015 321.215179,823.285767 
	C320.947754,842.877380 322.390991,862.489136 322.945374,882.096252 
	C323.406189,898.393738 323.550049,914.700256 324.026062,930.997192 
	C324.564697,949.437073 324.574158,967.934937 326.163086,986.290833 
	C328.194397,1009.756592 330.587402,1033.280273 334.685608,1056.449829 
	C337.967041,1075.001343 343.341888,1093.276978 349.012390,1111.289551 
	C357.631653,1138.669067 368.879974,1165.023438 387.435516,1187.356201 
	C396.426758,1198.177490 406.799927,1207.854614 416.606720,1217.992554 
	C420.514343,1222.032104 424.524567,1225.977417 428.605133,1229.841919 
	C430.246277,1231.396362 432.201599,1232.619019 434.013916,1233.992676 
	C445.435425,1251.526733 456.868286,1269.053589 468.269592,1286.600708 
	C470.798981,1290.493408 473.217041,1294.458374 475.830353,1298.697754 
z"/>
<path fill="#1B6CD1" opacity="1.000000" stroke="none" 
	d="
M433.939545,1233.652222 
	C432.201599,1232.619019 430.246277,1231.396362 428.605133,1229.841919 
	C424.524567,1225.977417 420.514343,1222.032104 416.606720,1217.992554 
	C406.799927,1207.854614 396.426758,1198.177490 387.435516,1187.356201 
	C368.879974,1165.023438 357.631653,1138.669067 349.012390,1111.289551 
	C343.341888,1093.276978 337.967041,1075.001343 334.685608,1056.449829 
	C330.587402,1033.280273 328.194397,1009.756592 326.163086,986.290833 
	C324.574158,967.934937 324.564697,949.437073 324.026062,930.997192 
	C323.550049,914.700256 323.406189,898.393738 322.945374,882.096252 
	C322.390991,862.489136 320.947754,842.877380 321.215179,823.285767 
	C321.445801,806.390015 323.488739,789.515930 324.818237,772.639221 
	C325.809052,760.061646 326.612305,747.456238 328.102173,734.934937 
	C329.553772,722.735718 331.398773,710.555054 333.744904,698.497375 
	C336.884735,682.360596 339.808716,666.097229 344.411713,650.351929 
	C349.672791,632.355530 356.415863,614.770325 363.045532,597.206665 
	C365.791382,589.932251 369.756104,583.090759 373.518158,576.245667 
	C374.498932,574.461121 376.799438,573.401855 378.819427,571.990723 
	C379.261810,574.458923 379.480621,576.945801 379.480652,579.432739 
	C379.483795,766.924988 379.467010,954.417297 379.488373,1141.909546 
	C379.488617,1144.184448 379.962158,1146.459229 380.593994,1148.989502 
	C386.247406,1157.900879 391.402405,1166.632568 396.820007,1175.197998 
	C409.099731,1194.612671 421.508728,1213.945557 433.939545,1233.652222 
z"/>
<path fill="#15519D" opacity="1.000000" stroke="none" 
	d="
M858.485840,584.122803 
	C857.094910,587.889954 855.643066,591.635864 854.323303,595.427856 
	C847.377563,615.384827 832.080322,626.564819 813.051331,632.619446 
	C800.636169,636.569641 787.595398,639.092041 774.641846,640.661987 
	C761.354614,642.272339 747.834106,642.338135 734.412842,642.393372 
	C688.948547,642.580627 643.482910,642.463745 598.017822,642.463013 
	C596.040222,642.462952 594.062622,642.463013 591.313049,642.463013 
	C591.313049,610.029358 591.313049,577.983032 591.764282,545.446899 
	C602.991150,542.246887 613.686829,539.149841 624.558350,536.903503 
	C650.749390,531.491699 677.323059,530.070312 703.968018,531.153076 
	C715.204346,531.609619 726.701294,532.499512 737.511353,535.348938 
	C773.989197,544.964111 809.247498,558.073792 842.821960,575.443176 
	C848.121643,578.184875 853.268433,581.222168 858.485840,584.122803 
z"/>
<path fill="#15519D" opacity="1.000000" stroke="none" 
	d="
M592.635254,1034.415283 
	C598.708984,1036.103638 604.564880,1038.479858 610.581177,1040.335571 
	C626.790100,1045.335205 643.490356,1047.769531 660.261475,1050.134888 
	C681.502563,1053.130859 702.774475,1051.473999 724.027649,1051.972778 
	C738.303345,1052.307861 750.937927,1046.358643 763.334351,1040.522095 
	C776.693604,1034.232300 789.530396,1026.810303 802.448303,1019.618530 
	C806.337646,1017.453186 809.900024,1014.595032 813.273499,1011.664368 
	C814.496826,1010.601624 814.939758,1008.451111 815.358887,1006.705627 
	C815.770935,1004.989380 815.701294,1003.157471 816.009155,1001.006592 
	C824.576782,1016.440918 833.023132,1032.221313 841.367859,1048.055298 
	C851.035950,1066.400269 860.614868,1084.792236 869.956177,1103.635498 
	C866.487671,1106.553833 863.613281,1109.690796 860.049927,1111.331665 
	C840.998047,1120.105347 820.546082,1124.115234 800.099915,1127.899170 
	C785.254211,1130.646729 770.304688,1132.854980 755.369568,1135.090332 
	C747.340576,1136.292236 739.259644,1137.644287 731.174561,1137.851318 
	C720.558167,1138.123291 709.916565,1137.189453 699.282104,1137.038452 
	C687.456970,1136.870605 675.625122,1137.150024 663.800903,1136.951416 
	C654.667542,1136.797974 645.524353,1136.437256 636.416077,1135.758301 
	C621.859253,1134.673218 607.327820,1133.247681 592.785645,1131.966187 
	C592.668945,1128.824951 592.451843,1125.683838 592.450989,1122.542603 
	C592.442871,1093.317017 592.472107,1064.091309 592.635254,1034.415283 
z"/>
<path fill="#1962BC" opacity="1.000000" stroke="none" 
	d="
M1069.255127,526.420288 
	C1073.854980,525.451355 1075.304321,529.417542 1077.162109,531.996338 
	C1091.294189,551.613281 1103.488892,572.330566 1113.463379,594.441101 
	C1124.971191,619.950439 1132.819092,646.563049 1138.236938,673.844971 
	C1141.525879,690.406006 1142.645996,707.387512 1145.082275,724.130432 
	C1148.693115,748.944519 1148.460693,773.912048 1147.838623,798.832153 
	C1147.337891,818.892273 1145.440186,838.919067 1144.095947,858.956116 
	C1143.118286,873.529968 1141.726318,888.082825 1141.067627,902.669739 
	C1140.115356,923.754761 1139.871216,944.871643 1138.937012,965.957703 
	C1137.827637,991.004761 1136.243042,1016.030518 1134.988037,1041.071655 
	C1134.206299,1056.666016 1133.817139,1072.280762 1132.950317,1087.869751 
	C1132.157959,1102.119751 1131.101074,1116.360474 1129.773071,1130.568970 
	C1129.595093,1132.471802 1127.143311,1134.162109 1125.364380,1135.977783 
	C1122.600342,1131.890991 1120.086548,1127.846313 1117.855347,1123.651367 
	C1108.840820,1106.702637 1099.913452,1089.707642 1091.287598,1072.276978 
	C1092.397461,1070.673340 1093.762817,1069.569702 1093.859497,1068.364380 
	C1095.014893,1053.967163 1096.064087,1039.560059 1096.976929,1025.145142 
	C1098.089355,1007.576538 1099.060059,989.998840 1100.065308,972.423523 
	C1101.061035,955.015320 1102.007812,937.604309 1103.004272,920.196106 
	C1104.019897,902.455017 1104.975586,884.709717 1106.131348,866.977600 
	C1107.308228,848.924011 1109.484985,830.898560 1109.813232,812.835144 
	C1110.341675,783.746338 1110.992798,754.573975 1106.938110,725.632874 
	C1104.570190,708.731506 1102.159912,691.791443 1098.638306,675.107422 
	C1094.024170,653.247803 1086.768188,632.109070 1077.606079,611.719238 
	C1074.655396,605.152466 1070.422119,599.161987 1066.775635,592.907898 
	C1069.268188,570.946472 1070.829224,548.951111 1069.255127,526.420288 
z"/>
<path fill="#1658A9" opacity="1.000000" stroke="none" 
	d="
M858.677490,583.800049 
	C853.268433,581.222168 848.121643,578.184875 842.821960,575.443176 
	C809.247498,558.073792 773.989197,544.964111 737.511353,535.348938 
	C726.701294,532.499512 715.204346,531.609619 703.968018,531.153076 
	C677.323059,530.070312 650.749390,531.491699 624.558350,536.903503 
	C613.686829,539.149841 602.991150,542.246887 591.868042,544.990356 
	C591.435547,521.567932 591.348206,498.112091 591.267578,474.656281 
	C591.252808,470.349426 591.265381,466.042511 591.265381,460.986542 
	C644.738159,460.986542 697.892334,460.986542 751.723145,461.384644 
	C754.279175,461.795013 756.158630,461.807281 758.038086,461.819550 
	C777.772095,462.415100 797.267456,464.457886 816.014282,471.191681 
	C834.592041,477.864777 849.537476,488.914551 855.563904,508.344727 
	C859.027527,519.511841 860.664551,531.406067 861.772583,543.101013 
	C863.051453,556.598999 861.608765,570.143250 858.677490,583.800049 
z"/>
<path fill="#1656A6" opacity="1.000000" stroke="none" 
	d="
M592.643066,1132.416748 
	C607.327820,1133.247681 621.859253,1134.673218 636.416077,1135.758301 
	C645.524353,1136.437256 654.667542,1136.797974 663.800903,1136.951416 
	C675.625122,1137.150024 687.456970,1136.870605 699.282104,1137.038452 
	C709.916565,1137.189453 720.558167,1138.123291 731.174561,1137.851318 
	C739.259644,1137.644287 747.340576,1136.292236 755.369568,1135.090332 
	C770.304688,1132.854980 785.254211,1130.646729 800.099915,1127.899170 
	C820.546082,1124.115234 840.998047,1120.105347 860.049927,1111.331665 
	C863.613281,1109.690796 866.487671,1106.553833 870.027466,1103.993164 
	C877.607910,1117.464966 884.951782,1130.993652 891.992249,1144.678467 
	C893.653748,1147.908203 895.481750,1149.279907 899.197815,1149.104492 
	C905.811462,1148.792236 912.451599,1149.043579 919.539429,1149.161377 
	C918.968262,1150.844849 918.305969,1153.034546 916.851624,1153.913330 
	C902.367554,1162.666260 886.916077,1169.149658 870.367920,1172.877808 
	C844.842651,1178.628540 818.917236,1180.798340 792.837708,1182.145996 
	C776.120972,1183.009644 759.495361,1185.540894 742.783875,1186.640015 
	C733.364197,1187.259521 723.852905,1186.505493 714.383484,1186.335815 
	C712.225220,1186.297119 710.070190,1186.032959 707.912354,1186.012451 
	C671.128235,1185.660767 634.328247,1185.851562 597.566833,1184.751587 
	C581.890808,1184.282593 566.285095,1181.204224 550.665527,1179.172729 
	C530.990417,1176.613892 512.688599,1169.606689 494.847992,1161.327393 
	C490.208221,1159.174316 485.951874,1156.156982 481.652374,1153.334106 
	C480.531006,1152.597900 479.909149,1151.100708 479.029968,1149.608276 
	C491.133942,1149.178589 503.265717,1149.040649 515.397705,1149.019897 
	C539.011719,1148.979736 562.625916,1149.005127 586.239990,1149.003296 
	C588.037781,1149.003174 589.835571,1149.003296 592.500488,1149.003296 
	C592.500488,1143.353149 592.500488,1138.110229 592.643066,1132.416748 
z"/>
<path fill="#185FB6" opacity="1.000000" stroke="none" 
	d="
M1066.464355,593.162842 
	C1070.422119,599.161987 1074.655396,605.152466 1077.606079,611.719238 
	C1086.768188,632.109070 1094.024170,653.247803 1098.638306,675.107422 
	C1102.159912,691.791443 1104.570190,708.731506 1106.938110,725.632874 
	C1110.992798,754.573975 1110.341675,783.746338 1109.813232,812.835144 
	C1109.484985,830.898560 1107.308228,848.924011 1106.131348,866.977600 
	C1104.975586,884.709717 1104.019897,902.455017 1103.004272,920.196106 
	C1102.007812,937.604309 1101.061035,955.015320 1100.065308,972.423523 
	C1099.060059,989.998840 1098.089355,1007.576538 1096.976929,1025.145142 
	C1096.064087,1039.560059 1095.014893,1053.967163 1093.859497,1068.364380 
	C1093.762817,1069.569702 1092.397461,1070.673340 1091.238770,1071.916504 
	C1080.926392,1053.575684 1070.996704,1035.142578 1061.412842,1016.326660 
	C1062.872925,1014.551025 1064.754639,1013.268677 1064.973877,1011.746826 
	C1066.204102,1003.208923 1067.236084,994.630127 1067.949463,986.033203 
	C1068.869385,974.945679 1069.387573,963.825317 1070.146118,952.723755 
	C1071.402100,934.338501 1072.731567,915.958252 1073.993042,897.573364 
	C1075.061523,881.999451 1076.064941,866.421143 1077.120483,850.846313 
	C1078.063599,836.932800 1079.501099,823.033508 1079.862305,809.105652 
	C1080.185425,796.652344 1079.673096,784.148315 1078.923096,771.703247 
	C1077.924561,755.137268 1076.832031,738.548401 1074.886475,722.074890 
	C1072.126831,698.708923 1066.612549,675.892212 1058.631958,653.734375 
	C1057.842041,651.541260 1055.530518,649.896118 1053.925293,647.996643 
	C1057.631104,632.941467 1061.336914,617.886230 1065.349487,602.339294 
	C1065.709717,601.207520 1065.763184,600.567444 1065.816650,599.927429 
	C1065.928833,597.757568 1066.041016,595.587708 1066.464355,593.162842 
z"/>
<path fill="#175CB1" opacity="1.000000" stroke="none" 
	d="
M1053.676514,648.253906 
	C1055.530518,649.896118 1057.842041,651.541260 1058.631958,653.734375 
	C1066.612549,675.892212 1072.126831,698.708923 1074.886475,722.074890 
	C1076.832031,738.548401 1077.924561,755.137268 1078.923096,771.703247 
	C1079.673096,784.148315 1080.185425,796.652344 1079.862305,809.105652 
	C1079.501099,823.033508 1078.063599,836.932800 1077.120483,850.846313 
	C1076.064941,866.421143 1075.061523,881.999451 1073.993042,897.573364 
	C1072.731567,915.958252 1071.402100,934.338501 1070.146118,952.723755 
	C1069.387573,963.825317 1068.869385,974.945679 1067.949463,986.033203 
	C1067.236084,994.630127 1066.204102,1003.208923 1064.973877,1011.746826 
	C1064.754639,1013.268677 1062.872925,1014.551025 1061.375000,1015.972229 
	C1051.967285,999.245178 1042.943481,982.489868 1034.234863,965.260925 
	C1035.326904,963.591675 1036.618774,962.464172 1036.787598,961.188171 
	C1037.396484,956.587830 1037.711060,951.942322 1037.981201,947.304810 
	C1038.444946,939.347656 1038.601929,931.368652 1039.229492,923.425842 
	C1040.352783,909.207642 1041.796021,895.014954 1042.978516,880.801025 
	C1043.817749,870.714600 1044.442139,860.610291 1045.174194,850.514832 
	C1046.109863,837.610291 1047.732056,824.711304 1047.822998,811.801270 
	C1047.928101,796.877014 1046.586792,781.947021 1046.058350,767.013000 
	C1045.327393,746.353455 1042.128784,726.025757 1037.799927,705.875244 
	C1036.832520,701.372375 1034.398193,697.184570 1032.639282,692.851685 
	C1039.568848,678.071533 1046.498413,663.291382 1053.676514,648.253906 
z"/>
<path fill="#1759AB" opacity="1.000000" stroke="none" 
	d="
M1032.384521,693.059814 
	C1034.398193,697.184570 1036.832520,701.372375 1037.799927,705.875244 
	C1042.128784,726.025757 1045.327393,746.353455 1046.058350,767.013000 
	C1046.586792,781.947021 1047.928101,796.877014 1047.822998,811.801270 
	C1047.732056,824.711304 1046.109863,837.610291 1045.174194,850.514832 
	C1044.442139,860.610291 1043.817749,870.714600 1042.978516,880.801025 
	C1041.796021,895.014954 1040.352783,909.207642 1039.229492,923.425842 
	C1038.601929,931.368652 1038.444946,939.347656 1037.981201,947.304810 
	C1037.711060,951.942322 1037.396484,956.587830 1036.787598,961.188171 
	C1036.618774,962.464172 1035.326904,963.591675 1034.185303,964.898987 
	C1023.600098,946.074585 1013.374695,927.141174 1003.165100,908.199219 
	C1001.672302,905.429565 1000.254822,902.619324 999.143311,899.409424 
	C1000.324036,897.766296 1001.716675,896.619995 1001.903748,895.302490 
	C1002.556152,890.708618 1002.829895,886.058350 1003.178833,881.424377 
	C1004.798523,859.915955 1006.946411,838.427429 1007.791260,816.888123 
	C1008.290222,804.164795 1006.894226,791.347717 1006.016541,778.595703 
	C1005.242188,767.343994 1004.049622,756.119629 1002.945618,744.892639 
	C1002.597412,741.351074 1002.204346,737.613586 997.097412,738.005615 
	C1010.080994,724.115845 1022.215149,709.560913 1032.384521,693.059814 
z"/>
<path fill="#1756A4" opacity="1.000000" stroke="none" 
	d="
M996.789673,738.147217 
	C1002.204346,737.613586 1002.597412,741.351074 1002.945618,744.892639 
	C1004.049622,756.119629 1005.242188,767.343994 1006.016541,778.595703 
	C1006.894226,791.347717 1008.290222,804.164795 1007.791260,816.888123 
	C1006.946411,838.427429 1004.798523,859.915955 1003.178833,881.424377 
	C1002.829895,886.058350 1002.556152,890.708618 1001.903748,895.302490 
	C1001.716675,896.619995 1000.324036,897.766296 999.079590,899.051025 
	C989.452698,882.068970 980.171143,865.058716 971.023254,847.976868 
	C959.572876,826.595459 945.980347,806.777466 928.880371,789.474121 
	C928.304260,788.891235 927.830505,788.207153 926.854248,787.014771 
	C952.812195,774.439209 976.076660,758.371094 996.789673,738.147217 
z"/>
<path fill="#D8E3F2" opacity="1.000000" stroke="none" 
	d="
M757.891296,461.503418 
	C756.158630,461.807281 754.279175,461.795013 752.187134,461.442383 
	C753.897827,461.130432 755.821167,461.158844 757.891296,461.503418 
z"/>
<path fill="#92B4DF" opacity="1.000000" stroke="none" 
	d="
M379.661621,432.758545 
	C379.389374,430.962860 379.277161,428.724670 379.332764,426.148071 
	C379.607605,427.978485 379.714630,430.147247 379.661621,432.758545 
z"/>
<path fill="#1962BC" opacity="1.000000" stroke="none" 
	d="
M1065.546997,600.073242 
	C1065.763184,600.567444 1065.709717,601.207520 1065.413574,601.925049 
	C1065.206421,601.408020 1065.241943,600.813477 1065.546997,600.073242 
z"/>
<path fill="#D8E3F2" opacity="1.000000" stroke="none" 
	d="
M1130.057129,1147.137451 
	C1130.265625,1147.479980 1130.417969,1148.153931 1130.261108,1148.819580 
	C1129.968384,1148.363892 1129.984741,1147.916382 1130.057129,1147.137451 
z"/>
</svg>